<?xml version="1.0" encoding="utf-8"?>
<!-- Generator: Adobe Illustrator 27.3.1, SVG Export Plug-In . SVG Version: 6.00 Build 0)  -->
<svg version="1.1" id="Слой_1" xmlns="http://www.w3.org/2000/svg" xmlns:xlink="http://www.w3.org/1999/xlink" x="0px" y="0px"
	 viewBox="0 0 425.2 425.2" style="enable-background:new 0 0 425.2 425.2;" xml:space="preserve">
<style type="text/css">
	.st0{fill:#232323;}
	.st1{fill:#2363AD;}
	.st2{fill:#FFFFFF;}
</style>
<g>
	<g>
		<path class="st0" d="M262.1,168l25.7-132l-17.4,16.9C244.8,78,216.2,116,189.8,158.7c-50,10.5-87.7,55-87.7,108.1
			c0,60.8,49.6,110.5,110.4,110.5c60.8,0,110.5-49.6,110.5-110.5C323,223.6,298.2,186.2,262.1,168 M275.7,58.3L255,164.8l-29,148.4
			l-94.1-23.4c1.1-2.7,2.1-5.5,3.3-8.2c0.4-0.8,0.7-1.6,1-2.4c0.8-2,1.6-3.9,2.5-5.9c0.4-0.9,0.7-1.7,1.1-2.6
			c0.9-1.9,1.7-3.8,2.5-5.7c0.4-0.9,0.8-1.7,1.1-2.5c0.9-2,1.7-3.9,2.6-5.9c0.4-0.7,0.7-1.5,1-2.2c1-2.1,1.9-4.1,2.9-6.2
			c0.3-0.7,0.6-1.3,0.9-2c1-2.1,2.1-4.3,3.1-6.4c0.3-0.6,0.6-1.2,0.9-1.7c1.1-2.3,2.2-4.5,3.3-6.8c0.2-0.5,0.5-0.9,0.7-1.4
			c1.2-2.3,2.4-4.7,3.6-7c0.2-0.4,0.4-0.8,0.6-1.1c1.2-2.5,2.5-4.9,3.8-7.3c0.1-0.3,0.3-0.5,0.4-0.8c1.3-2.5,2.7-5.1,4-7.6
			c0.1-0.2,0.2-0.4,0.3-0.6c1.4-2.6,2.8-5.2,4.3-7.8c0.1-0.1,0.1-0.2,0.2-0.4c1.5-2.6,3-5.3,4.5-8c0,0,0-0.1,0.1-0.1
			c1.5-2.7,3.1-5.4,4.6-8.1l0,0c4.7-8.1,9.6-16.1,14.5-23.9C224.8,117.2,251.6,81.9,275.7,58.3 M234.4,335.4l-110.6-19.3l97.9,2.6
			l31.3,0.8L234.4,335.4z"/>
	</g>
</g>
</svg>
