<?xml version="1.0" encoding="utf-8"?>
<!-- Generator: Adobe Illustrator 27.3.1, SVG Export Plug-In . SVG Version: 6.00 Build 0)  -->
<svg version="1.1" id="Слой_1" xmlns="http://www.w3.org/2000/svg" xmlns:xlink="http://www.w3.org/1999/xlink" x="0px" y="0px"
	 viewBox="0 0 425.2 425.2" style="enable-background:new 0 0 425.2 425.2;" xml:space="preserve">
<style type="text/css">
	.st0{fill:#232323;}
	.st1{fill:#2363AD;}
	.st2{fill:#FFFFFF;}
</style>
<g>
	<circle class="st1" cx="211.9" cy="266.1" r="111.1"/>
	<path class="st2" d="M275.7,58.2L255,164.6L226,313l-94.1-23.4c1.1-2.7,2.1-5.5,3.3-8.2c0.4-0.8,0.7-1.6,1-2.4
		c0.8-2,1.6-3.9,2.5-5.9c0.4-0.9,0.7-1.7,1.1-2.6c0.9-1.9,1.7-3.8,2.5-5.7c0.4-0.9,0.8-1.7,1.1-2.5c0.9-2,1.7-3.9,2.6-5.9
		c0.4-0.7,0.7-1.5,1-2.2c1-2.1,1.9-4.1,2.9-6.2c0.3-0.7,0.6-1.3,0.9-2c1-2.1,2.1-4.3,3.1-6.4c0.3-0.6,0.6-1.2,0.9-1.7
		c1.1-2.3,2.2-4.5,3.3-6.8c0.2-0.5,0.5-0.9,0.7-1.4c1.2-2.3,2.4-4.7,3.6-7c0.2-0.4,0.4-0.8,0.6-1.1c1.2-2.5,2.5-4.9,3.8-7.3
		c0.1-0.3,0.3-0.5,0.4-0.8c1.3-2.5,2.7-5.1,4-7.6c0.1-0.2,0.2-0.4,0.3-0.6c1.4-2.6,2.8-5.2,4.3-7.8c0.1-0.1,0.1-0.2,0.2-0.4
		c1.5-2.6,3-5.3,4.5-8c0,0,0-0.1,0.1-0.1c1.5-2.7,3.1-5.4,4.6-8.1l0,0c4.7-8.1,9.6-16.1,14.5-23.9C224.8,117,251.6,81.8,275.7,58.2"
		/>
	<polygon class="st2" points="234.4,335.3 123.8,316 221.8,318.6 253,319.4 	"/>
</g>
</svg>
