<?xml version="1.0" encoding="utf-8"?>
<!-- Generator: Adobe Illustrator 27.3.1, SVG Export Plug-In . SVG Version: 6.00 Build 0)  -->
<svg version="1.1" id="Слой_1" xmlns="http://www.w3.org/2000/svg" xmlns:xlink="http://www.w3.org/1999/xlink" x="0px" y="0px"
	 viewBox="0 0 1434.9 538.7" style="enable-background:new 0 0 1434.9 538.7;" xml:space="preserve">
<style type="text/css">
	.st0{fill:#232323;}
	.st1{fill:#2363AD;}
	.st2{fill:#FFFFFF;}
</style>
<g>
	<g>
		<path d="M862.3,330.3c-6.5,0-12.5-1.3-18-4c-5.5-2.7-9.8-6.7-13.1-12.2c-3.3-5.5-4.9-12.4-4.9-20.7v-2.7c0-8,1.6-14.6,4.7-19.8
			c3.1-5.2,7.3-9.2,12.5-11.8c5.2-2.6,11-3.9,17.4-3.9c11.3,0,19.9,3,25.8,9c5.9,6,8.8,14.6,8.8,25.9v7.6h-50.9
			c0.2,4.3,1.1,7.7,2.8,10.4c1.7,2.7,3.8,4.6,6.4,5.8c2.6,1.2,5.4,1.8,8.4,1.8c4.6,0,8.1-0.7,10.4-2c2.4-1.4,4-3.3,5-6h16.4
			c-1.4,7.5-5,13.2-10.7,17C877.7,328.4,870.7,330.3,862.3,330.3z M861.6,269.8c-2.8,0-5.5,0.5-8.1,1.4c-2.6,0.9-4.7,2.5-6.2,4.8
			c-1.5,2.3-2.4,5.4-2.6,9.2h33.5c-0.1-4.1-0.9-7.2-2.4-9.4c-1.5-2.2-3.5-3.8-5.9-4.6C867.4,270.3,864.6,269.8,861.6,269.8z"/>
		<path d="M929.8,329.5c-5.5,0-10-0.7-13.5-2.2c-3.5-1.5-6-4-7.7-7.6c-1.6-3.6-2.4-8.6-2.4-15v-70.9h17.8v68.8c0,4.6,0.7,7.7,2,9.4
			c1.3,1.6,3.9,2.4,7.8,2.4c1,0,1.9,0,2.6-0.1c0.7,0,1.4-0.1,2.2-0.2V329c-0.5,0.2-1.2,0.3-2.3,0.4c-1.1,0.1-2.2,0.1-3.4,0.1
			C931.6,329.5,930.6,329.5,929.8,329.5z"/>
		<path d="M978.9,330.3c-6.5,0-12.5-1.3-18-4c-5.5-2.7-9.8-6.7-13.1-12.2c-3.3-5.5-4.9-12.4-4.9-20.7v-2.7c0-8,1.6-14.6,4.7-19.8
			c3.1-5.2,7.3-9.2,12.5-11.8c5.2-2.6,11-3.9,17.4-3.9c11.3,0,19.9,3,25.8,9c5.9,6,8.8,14.6,8.8,25.9v7.6h-50.9
			c0.2,4.3,1.1,7.7,2.8,10.4c1.7,2.7,3.8,4.6,6.4,5.8c2.6,1.2,5.4,1.8,8.4,1.8c4.6,0,8.1-0.7,10.4-2c2.4-1.4,4-3.3,5-6h16.4
			c-1.4,7.5-5,13.2-10.7,17C994.4,328.4,987.3,330.3,978.9,330.3z M978.3,269.8c-2.8,0-5.5,0.5-8.1,1.4c-2.6,0.9-4.7,2.5-6.2,4.8
			c-1.5,2.3-2.4,5.4-2.6,9.2h33.5c-0.1-4.1-0.9-7.2-2.4-9.4c-1.5-2.2-3.5-3.8-5.9-4.6C984.1,270.3,981.3,269.8,978.3,269.8z"/>
		<path d="M1054.7,330.3c-6.6,0-12.6-1.4-17.9-4.1c-5.3-2.8-9.6-6.9-12.7-12.3c-3.1-5.5-4.7-12.3-4.7-20.4v-2.7
			c0-7.8,1.6-14.3,4.9-19.5c3.3-5.2,7.5-9.2,12.9-11.9c5.3-2.7,11.2-4.1,17.5-4.1c6.8,0,12.5,1.1,17.2,3.4c4.7,2.3,8.3,5.4,10.9,9.4
			c2.6,4,4,8.4,4.4,13.2H1069c-0.7-3.3-2.2-5.9-4.4-7.8c-2.2-1.9-5.5-2.9-10-2.9c-3.1,0-5.9,0.7-8.5,2.2c-2.6,1.4-4.7,3.7-6.2,6.6
			c-1.6,3-2.4,6.8-2.4,11.5v2.7c0,5.1,0.7,9.2,2.2,12.4c1.5,3.2,3.5,5.6,6.1,7.1s5.5,2.2,8.7,2.2c3.5,0,6.6-0.9,9.2-2.8
			c2.6-1.9,4.3-4.5,5.2-7.9h18.2c-0.5,5.2-2.3,9.7-5.2,13.7c-2.9,4-6.7,7-11.5,9.1C1065.9,329.3,1060.5,330.3,1054.7,330.3z"/>
		<path d="M1126.7,329.5c-5.6,0-10.2-0.8-13.8-2.4c-3.6-1.6-6.3-4.1-7.9-7.7c-1.7-3.5-2.5-8.1-2.5-13.7v-34h-9.6v-14.9h9.6v-16.3
			h17.8v16.3h17.4v14.9h-17.4v31.2c0,4.1,0.7,7,2.2,8.7c1.5,1.8,4.3,2.6,8.3,2.6c2.7,0,5.4-0.1,8.1-0.4v14.9
			c-1.7,0.2-3.5,0.3-5.4,0.5C1131.7,329.4,1129.4,329.5,1126.7,329.5z"/>
		<path d="M1147.9,328.7v-71.9h16.3v10.7c1-2.1,2.4-4,4.1-5.8c1.7-1.8,3.8-3.3,6.4-4.6c2.5-1.3,5.3-1.9,8.4-1.9
			c1.7,0,3.2,0.1,4.4,0.3c1.2,0.2,2,0.4,2.4,0.5v15.9c-0.9-0.4-2.1-0.7-3.5-1c-1.4-0.3-3.3-0.5-5.6-0.5c-3.6,0-6.5,0.8-8.7,2.3
			c-2.2,1.5-3.8,3.6-4.8,6c-1,2.5-1.5,5.2-1.5,8.1v41.9H1147.9z"/>
		<path d="M1230.4,330.3c-6.5,0-12.5-1.3-18-4c-5.5-2.7-9.8-6.7-13.1-12.2c-3.3-5.5-4.9-12.4-4.9-20.7v-2.7c0-7.9,1.6-14.4,4.9-19.7
			c3.3-5.2,7.6-9.2,13.1-11.9c5.5-2.7,11.5-4,18-4c6.5,0,12.5,1.3,18,4c5.5,2.7,9.8,6.6,13.1,11.9c3.3,5.2,4.9,11.8,4.9,19.7v2.7
			c0,8.1-1.6,14.9-4.9,20.4c-3.3,5.5-7.6,9.6-13.1,12.3C1242.9,328.9,1236.9,330.3,1230.4,330.3z M1230.4,315.1
			c3.4,0,6.5-0.8,9.2-2.4c2.7-1.6,4.8-4,6.3-7.3c1.5-3.3,2.3-7.3,2.3-12.1v-2.7c0-4.4-0.8-8.1-2.3-11.1c-1.5-3-3.6-5.3-6.3-6.8
			c-2.7-1.6-5.7-2.4-9.2-2.4c-3.4,0-6.5,0.8-9.2,2.4c-2.7,1.6-4.8,3.9-6.3,6.8c-1.5,3-2.3,6.7-2.3,11.1v2.7c0,4.9,0.8,8.9,2.3,12.1
			c1.5,3.2,3.6,5.6,6.3,7.2C1223.9,314.3,1227,315.1,1230.4,315.1z"/>
	</g>
</g>
<g>
	<path d="M443.2,355.5v-99h16.5V267c1.8-3.3,4.7-6.1,8.5-8.5c3.9-2.4,8.8-3.7,14.8-3.7c9.6,0,17.1,3,22.4,8.9
		c5.4,5.9,8.1,14.8,8.1,26.7v2.7c0,8.2-1.2,15.1-3.7,20.5c-2.5,5.5-6,9.6-10.5,12.3c-4.5,2.7-9.9,4.1-16.3,4.1
		c-4.9,0-9.2-1.1-13-3.2c-3.8-2.1-6.8-4.9-9.2-8.3v37H443.2z M478.9,314.8c4.7,0,8.6-1.8,11.8-5.4c3.2-3.6,4.7-9,4.7-16.3v-2.7
		c0-6.8-1.5-11.9-4.5-15.3c-3-3.4-7-5.1-12-5.1c-3.4,0-6.5,0.7-9.2,2c-2.7,1.3-4.8,3.3-6.4,5.8c-1.5,2.6-2.3,5.9-2.3,9.8v8.1
		c0,4.3,0.7,7.8,2.2,10.6c1.5,2.8,3.6,4.9,6.3,6.3C472.3,314.1,475.4,314.8,478.9,314.8z"/>
	<path d="M673.7,330c-8.3,0-14.6-2.4-18.9-7.1c-4.3-4.7-6.4-12.1-6.4-22v-44.4h17.8v41.9c0,5.4,1.1,9.5,3.2,12.3
		c2.1,2.8,5.7,4.1,10.8,4.1c3.6,0,6.5-0.8,8.7-2.3c2.2-1.5,3.9-3.5,5-6c1.1-2.4,1.6-5.2,1.6-8.1v-41.9h17.9v71.9h-16.5v-10.7
		c-1.7,3.3-4.5,6.2-8.2,8.7C684.9,328.7,679.9,330,673.7,330z"/>
	<path d="M755.8,330c-5.9,0-10.8-0.6-14.8-1.8c-4-1.2-7.3-2.9-9.8-5c-2.6-2.1-4.5-4.5-5.7-7.3c-1.2-2.7-2-5.6-2.2-8.5h17.9
		c0.5,2.4,1.9,4.3,4.2,5.8c2.4,1.5,5.8,2.2,10.4,2.2c5.2,0,9-0.7,11.3-2.2c2.3-1.4,3.4-3.3,3.4-5.6c0-1.6-0.5-3-1.5-4
		c-1-1-2.8-1.9-5.3-2.7c-2.5-0.8-6.1-1.6-10.7-2.4c-4-0.5-7.6-1.3-10.9-2.2c-3.3-0.9-6.2-2.3-8.7-4c-2.5-1.7-4.5-3.9-5.9-6.4
		c-1.4-2.6-2.1-5.7-2.1-9.4c0-4,1.2-7.6,3.6-10.9c2.4-3.3,5.9-5.9,10.4-7.8c4.6-1.9,10.1-2.9,16.5-2.9c7,0,12.5,1.1,16.7,3.3
		c4.2,2.2,7.3,5,9.4,8.4c2.1,3.4,3.3,7.1,3.8,11h-17.9c-0.7-2.6-2.1-4.6-4.2-6c-2.1-1.4-4.7-2-7.7-2c-4.5,0-7.8,0.7-9.7,2.1
		c-1.9,1.4-2.9,3.1-2.9,5.2c0,2.2,1.1,3.8,3.2,5c2.1,1.2,6.5,2.2,13.1,3.1c4.1,0.5,7.8,1.3,11.3,2.4c3.5,1,6.5,2.4,9.2,4.1
		c2.6,1.7,4.7,3.9,6.2,6.4c1.5,2.6,2.2,5.7,2.2,9.4c0,4.4-1.2,8.3-3.6,11.7c-2.4,3.4-6,6.1-10.9,8C769.1,329,763,330,755.8,330z"/>
	<g>
		<g>
			<path d="M599,328.3v-71.9h16.3v10.7c1-2.1,2.4-4,4.1-5.8c1.7-1.8,3.8-3.3,6.4-4.6c2.5-1.3,5.3-1.9,8.4-1.9c1.7,0,3.2,0.1,4.4,0.3
				c1.2,0.2,2,0.4,2.4,0.5v15.9c-0.9-0.4-2.1-0.7-3.5-1c-1.4-0.3-3.3-0.5-5.6-0.5c-3.6,0-6.5,0.8-8.7,2.3c-2.2,1.5-3.8,3.6-4.8,6
				c-1,2.5-1.5,5.2-1.5,8.1v41.9H599z"/>
			<path d="M583.1,266.5c-2.5-4-6.1-7-10.7-8.8c-4.6-1.8-10-2.7-16.2-2.7c-6.4,0-11.8,1-16.3,2.9c-4.5,2-8,4.6-10.4,7.9
				c-2.4,3.3-3.8,7.1-4,11.3h18c0.3-2.1,1.3-3.8,3.1-5.3c1.8-1.4,4.8-2.1,8.9-2.1c4.6,0,8,1,10.2,2.9c2.1,1.9,3.2,5.2,3.2,10v3.4
				h-21.6c-8.6,0-15.1,1.8-19.5,5.5c-4.3,3.6-6.5,9.1-6.5,16.4c0,4.4,1,8.3,2.9,11.7c1.9,3.5,4.7,6.2,8.3,8.1
				c3.6,2,8.1,2.9,13.2,2.9c6.3,0,11.5-1.1,15.6-3.3c4.1-2.2,7.1-4.7,9-7.6v9.3h16.5l0,0v-46.1C586.9,275.9,585.7,270.5,583.1,266.5
				z M568.9,301.6c0,3.5-0.8,6.3-2.5,8.5c-1.7,2.2-3.9,3.9-6.6,4.9c-2.7,1-5.5,1.6-8.4,1.6c-3.8,0-6.7-0.9-8.7-2.6c-2-1.7-3-4-3-7
				c0-2.7,1-4.9,2.9-6.5c2-1.6,4.7-2.4,8.1-2.4h18.2V301.6z"/>
		</g>
	</g>
</g>
<path d="M335.8,211.6l20.8-106.8l-14,13.7c-20.8,20.3-43.9,51-65.2,85.5c-40.4,8.5-70.9,44.5-70.9,87.4c0,49.2,40.1,89.3,89.3,89.3
	c49.2,0,89.3-40.1,89.3-89.3C385.1,256.5,365,226.3,335.8,211.6 M346.9,122.8l-16.8,86.1l-23.4,120l-76.1-19
	c0.9-2.2,1.7-4.4,2.6-6.6c0.3-0.6,0.5-1.3,0.8-2c0.7-1.6,1.3-3.1,2-4.7c0.3-0.7,0.6-1.4,0.9-2.1c0.7-1.6,1.3-3.1,2-4.6
	c0.3-0.7,0.6-1.3,0.9-2c0.7-1.6,1.4-3.2,2.1-4.8c0.3-0.6,0.6-1.2,0.8-1.8c0.8-1.7,1.6-3.3,2.3-5c0.2-0.5,0.5-1.1,0.8-1.6
	c0.8-1.7,1.7-3.5,2.5-5.2c0.2-0.5,0.5-0.9,0.7-1.4c0.9-1.9,1.8-3.7,2.7-5.5c0.2-0.4,0.4-0.8,0.6-1.2c0.9-1.9,1.9-3.8,2.9-5.7
	c0.1-0.3,0.3-0.6,0.5-0.9c1-2,2-3.9,3.1-5.9c0.1-0.2,0.2-0.4,0.4-0.7c1.1-2.1,2.2-4.1,3.3-6.1c0.1-0.2,0.2-0.3,0.2-0.5
	c1.2-2.1,2.3-4.2,3.4-6.3c0.1-0.1,0.1-0.2,0.2-0.3c1.2-2.1,2.4-4.3,3.6-6.4c0,0,0-0.1,0.1-0.1c1.2-2.2,2.5-4.4,3.7-6.5l0,0
	c3.8-6.6,7.7-13,11.7-19.4C305.7,170.4,327.3,141.9,346.9,122.8 M313.5,346.9L224,331.3l79.2,2.1l25.3,0.7L313.5,346.9z"/>
</svg>
