<?xml version="1.0" encoding="utf-8"?>
<!-- Generator: Adobe Illustrator 27.3.1, SVG Export Plug-In . SVG Version: 6.00 Build 0)  -->
<svg version="1.1" id="Слой_1" xmlns="http://www.w3.org/2000/svg" xmlns:xlink="http://www.w3.org/1999/xlink" x="0px" y="0px"
	 viewBox="0 0 177.4 177.4" style="enable-background:new 0 0 177.4 177.4;" xml:space="preserve">
<style type="text/css">
	.st0{fill:#232323;}
</style>
<path class="st0" d="M126.7,119.6h-8.9v5h8.9c4.6,0,8.4-3.8,8.4-8.4V78.4h11.7c2.3,0,4.1-1.8,4.1-4.1V57.6L89.3,26.8L27,56.6
	l0.6,17.9c0.1,2.2,1.9,4,4.1,4h10.7v37.7c0,1.9-1.5,3.4-3.4,3.4H27.6v30.8h123.3v-31.1h-5v26.1H32.6v-20.8H39c4.6,0,8.4-3.8,8.4-8.4
	V78.4H72v37.7c0,1.9-1.5,3.4-3.4,3.4h-8.9v5h8.9c4.6,0,8.4-3.8,8.4-8.4V78.4h23.6v37.7c0,1.9-1.5,3.4-3.4,3.4h-8.9v5h8.9
	c4.6,0,8.4-3.8,8.4-8.4V78.4h24.6v37.7C130.1,118,128.6,119.6,126.7,119.6z M32.1,59.7l57.1-27.3l56.7,28.3v12.7H32.5L32.1,59.7z"/>
</svg>
