<?xml version="1.0" encoding="utf-8"?>
<!-- Generator: Adobe Illustrator 27.3.1, SVG Export Plug-In . SVG Version: 6.00 Build 0)  -->
<svg version="1.1" id="Слой_1" xmlns="http://www.w3.org/2000/svg" xmlns:xlink="http://www.w3.org/1999/xlink" x="0px" y="0px"
	 viewBox="0 0 177.4 177.4" style="enable-background:new 0 0 177.4 177.4;" xml:space="preserve">
<style type="text/css">
	.st0{fill:#232323;}
</style>
<path class="st0" d="M97.3,41.9H80.1v8.7h-8.7v17.2h8.7v8.7h17.2v-8.7h8.7V50.5h-8.7V41.9z M101,55.5v7.2h-8.7v8.7h-7.2v-8.7h-8.7
	v-7.2h8.7v-8.7h7.2v8.7H101z M141.3,56.6h-12.7v5h12.7c2.2,0,4,1.8,4,4v79.7h-24.6V36.1c0-5-4.1-9-9-9h-46c-5,0-9,4.1-9,9v109.2
	H32.1V65.7c0-2.2,1.8-4,4-4l12.2,0v-5l-12.2,0c-5,0-9,4.1-9,9v84.7h29.6h2.5h59.1h2.5h29.6V65.7C150.3,60.7,146.3,56.6,141.3,56.6z
	 M115.8,145.4H91.2v-9.3h-5v9.3H61.6V36.1c0-2.2,1.8-4,4-4h46c2.2,0,4,1.8,4,4V145.4z"/>
</svg>
