<?xml version="1.0" encoding="utf-8"?>
<!-- Generator: Adobe Illustrator 27.3.1, SVG Export Plug-In . SVG Version: 6.00 Build 0)  -->
<svg version="1.1" id="Слой_1" xmlns="http://www.w3.org/2000/svg" xmlns:xlink="http://www.w3.org/1999/xlink" x="0px" y="0px"
	 viewBox="0 0 177.4 177.4" style="enable-background:new 0 0 177.4 177.4;" xml:space="preserve">
<style type="text/css">
	.st0{fill:#1D62AD;}
</style>
<g>
	<path class="st0" d="M33,97.7c0-1.8,1.5-3.3,3.3-3.3h18.4l1.8-5H36.3c-4.6,0-8.3,3.7-8.3,8.3v6.3h5V97.7z"/>
	<path class="st0" d="M151.2,104v-6.3c0-4.6-3.7-8.3-8.3-8.3h-28l-7.4-27.8h21.7v-5h-23l-6.7-25.4c-1.1-4.1-4.6-6.8-8.9-6.8
		c0,0,0,0,0,0c-4.3,0-7.8,2.6-9,6.8l-6.9,25.5H50.9v5h22.4l-7.6,28l-15.5,56.3H28.8v5h119.9v-5h-18.8l-13.6-51.5h26.6
		c1.8,0,3.3,1.5,3.3,3.3v6.3H151.2z M86.4,32.4c0.7-2.3,2.6-3.1,4.1-3.1c0,0,0,0,0,0c1.6,0,3.5,0.8,4.1,3.1l6.4,24.1H79.9L86.4,32.4
		z M78.5,61.5h23.9l7.4,27.8H70.9L78.5,61.5z M106.7,94.4l-16.4,10.5L74,94.4H106.7z M68.8,97l16.8,10.8l-24,15.4L68.8,97z
		 M124.8,145.9H55.4l4.3-15.5l30.7-19.6l30.4,19.5L124.8,145.9z M118.8,123.2l-23.8-15.3L111.8,97L118.8,123.2z"/>
</g>
</svg>
