<?xml version="1.0" encoding="utf-8"?>
<!-- Generator: Adobe Illustrator 27.3.1, SVG Export Plug-In . SVG Version: 6.00 Build 0)  -->
<svg version="1.1" id="Слой_1" xmlns="http://www.w3.org/2000/svg" xmlns:xlink="http://www.w3.org/1999/xlink" x="0px" y="0px"
	 viewBox="0 0 177.4 177.4" style="enable-background:new 0 0 177.4 177.4;" xml:space="preserve">
<style type="text/css">
	.st0{fill:#1D62AD;}
</style>
<path class="st0" d="M150.9,150.4V80.1h-5v70.3h-22.4l-21.4-68.4c-1-3.3-4.1-5.6-7.6-5.6h-3.5c-3.6,0-6.7,2.4-7.7,5.9l-18.7,68.2
	H47.4V88.7h-5v61.7H31.8v5h119.9v-5H150.9z M81.4,111.5h22.7l-11.4,7.7L81.4,111.5z M88.3,122.2l-13.2,8.9l4.1-15L88.3,122.2z
	 M107.3,115.4l5.4,17.3l-15.5-10.5L107.3,115.4z M88.1,83.5c0.4-1.3,1.5-2.2,2.9-2.2h3.5c1.3,0,2.4,0.8,2.8,2.1l7.2,23.1H81.8
	L88.1,83.5z M73,138.5l19.7-13.2l22.4,15.1l3.1,10H69.8L73,138.5z M32.5,82.5l51.3-15.3c1.9,2.7,5,4.5,8.6,4.5
	c5.4,0,9.9-4.2,10.3-9.6l24.1-7.2l6.4,21.5l7.4-2.2c6.1-1.8,10.4-7.6,10.4-14V21.8l-32.1,9.6l3.3,11l4.8-1.4l-1.8-6.2l20.9-6.2v31.7
	c0,4.2-2.8,8-6.9,9.2l-2.6,0.8l-6.4-21.5l-28.3,8.5c-1.7-3.7-5.3-6.1-9.4-6.1c-5.7,0-10.3,4.6-10.3,10.3c0,0.4,0,0.7,0.1,1.1
	l-51,15.2L32.5,82.5z M92.4,56c2.1,0,4.1,1.3,4.9,3.3c0.3,0.7,0.4,1.4,0.4,2.1c0,2.9-2.4,5.3-5.3,5.3s-5.3-2.4-5.3-5.3
	C87.1,58.4,89.4,56,92.4,56z"/>
</svg>
