<?xml version="1.0" encoding="utf-8"?>
<!-- Generator: Adobe Illustrator 27.3.1, SVG Export Plug-In . SVG Version: 6.00 Build 0)  -->
<svg version="1.1" id="Слой_1" xmlns="http://www.w3.org/2000/svg" xmlns:xlink="http://www.w3.org/1999/xlink" x="0px" y="0px"
	 viewBox="0 0 177.4 177.4" style="enable-background:new 0 0 177.4 177.4;" xml:space="preserve">
<style type="text/css">
	.st0{fill:#1D62AD;}
</style>
<path class="st0" d="M77,118.5L54.3,141l-3.5-3.6l22.7-22.5c2.8-2.8,7-3.9,10.9-2.9c8.2,2.1,17-0.3,23-6.3
	c6.2-6.2,8.5-15.4,6.1-23.7l-12.8,12.8c-4.5,4.5-11.6,4.8-16.2,0.8c-2.5-2.2-3.9-5.2-4-8.4c-0.1-3.2,1.1-6.4,3.4-8.7l13-13
	c-8.3-2.4-17.4-0.1-23.7,6.1c-6,6-8.4,14.8-6.3,22.9c1,3.9-0.2,8.1-3,11L41.3,128l-3.5-3.6l22.7-22.5c1.6-1.6,2.2-4,1.7-6.2
	c-2.5-9.9,0.4-20.5,7.6-27.7c8.6-8.6,21.7-10.9,32.8-5.9l3.3,1.5L87.5,82c-1.3,1.3-2,3.1-2,5c0.1,1.9,0.9,3.6,2.3,4.8
	c2.6,2.3,6.8,2.1,9.4-0.5l18.1-18.1l1.5,3.3c5.1,11,2.7,24.2-5.9,32.8c-7.2,7.2-17.9,10.1-27.8,7.6C80.9,116.3,78.6,116.9,77,118.5z
	 M151.4,80.5c-0.4-2.9-2.9-5.1-5.9-5.1h-2.8c-1.2-4.6-2.9-9-5.2-13.1l2.1-2.1c2.1-2.1,2.3-5.3,0.6-7.6c-1.9-2.7-4.1-5.2-6.4-7.5
	c-2.3-2.3-4.9-4.5-7.6-6.4c-2.4-1.7-5.6-1.4-7.6,0.6l-2.1,2.1c-4.1-2.3-8.5-4-13.1-5.2v-2.8c0-3-2.2-5.5-5.1-5.9
	c-6.6-0.9-13.2-0.7-19.7,0.6c-2.8,0.5-4.8,3-4.8,5.8v3.2c-4.2,1.3-8.2,3.2-11.9,5.5l-1.9-1.9c-2.1-2.1-5.5-2.3-7.8-0.5
	c-2,1.5-3.8,3.2-5.5,4.9c-2.9,2.9-5.6,6.2-7.9,9.6c-1.5,2.3-1.2,5.4,0.8,7.4l2.3,2.3c-1.8,3.5-3.1,7.2-4.1,11h-2.8
	c-3,0-5.5,2.2-5.9,5.1c-0.9,6.6-0.7,13.2,0.6,19.7c0.5,2.8,3,4.8,5.8,4.8h5v-5h-5c-0.4,0-0.8-0.3-0.9-0.7c-1.1-6-1.3-12.1-0.5-18.1
	c0.1-0.4,0.4-0.8,0.9-0.8h6.8l0.4-2c1-4.7,2.6-9.1,4.9-13.3l0.9-1.6l-4.9-4.9c-0.3-0.3-0.4-0.8-0.1-1.1c2.1-3.2,4.5-6.2,7.2-8.9
	c1.6-1.6,3.3-3.1,5.1-4.5c0.4-0.3,0.9-0.2,1.2,0.1l4.8,4.8l1.7-1.1c4.3-2.9,9-5.1,14-6.5l1.8-0.5v-6.9c0-0.4,0.3-0.8,0.7-0.9
	c6-1.1,12.1-1.3,18.1-0.5c0.4,0.1,0.8,0.4,0.8,0.9v6.8l2,0.4c5.4,1.1,10.5,3.2,15.2,6l1.7,1l4.8-4.8c0.3-0.3,0.8-0.4,1.2-0.1
	c2.5,1.8,4.8,3.8,6.9,5.9c2.1,2.1,4.1,4.5,5.9,6.9c0.3,0.4,0.2,0.9-0.1,1.2l-4.8,4.8l1,1.7c2.9,4.7,4.9,9.8,6,15.2l0.4,2h6.8
	c0.5,0,0.8,0.3,0.9,0.8c0.8,6,0.6,12.1-0.5,18.1c-0.1,0.4-0.5,0.7-0.9,0.7h-6.9l-0.5,1.8c-1.4,5-3.6,9.7-6.5,14.1l-1.1,1.7l4.8,4.8
	c0.3,0.3,0.4,0.8,0.1,1.2c-1.4,1.8-2.9,3.5-4.5,5.1c-2.7,2.7-5.7,5.1-8.9,7.2c-0.4,0.2-0.8,0.2-1.1-0.1l-4.9-4.9l-1.6,0.9
	c-4.2,2.3-8.7,3.9-13.3,4.9l-2,0.4l0,6.8c0,0.5-0.3,0.8-0.8,0.9c-6,0.8-12.1,0.6-18.1-0.5c-0.4-0.1-0.7-0.5-0.7-0.9v-5h-5v5
	c0,2.8,2,5.3,4.8,5.8c3.8,0.7,7.7,1.1,11.6,1.1c2.7,0,5.4-0.2,8.1-0.5c2.9-0.4,5.1-2.9,5.1-5.9l0-2.8c3.8-1,7.5-2.3,11-4.1l2.3,2.3
	c2,2,5.1,2.3,7.4,0.8c3.5-2.3,6.7-4.9,9.6-7.9c1.7-1.7,3.4-3.6,4.9-5.5c1.8-2.3,1.6-5.7-0.5-7.8l-1.9-1.9c2.3-3.7,4.1-7.7,5.5-11.9
	h3.2c2.8,0,5.3-2,5.8-4.8C152.1,93.7,152.3,87.1,151.4,80.5z"/>
</svg>
