<?xml version="1.0" encoding="utf-8"?>
<!-- Generator: Adobe Illustrator 27.3.1, SVG Export Plug-In . SVG Version: 6.00 Build 0)  -->
<svg version="1.1" id="Слой_1" xmlns="http://www.w3.org/2000/svg" xmlns:xlink="http://www.w3.org/1999/xlink" x="0px" y="0px"
	 viewBox="0 0 177.4 177.4" style="enable-background:new 0 0 177.4 177.4;" xml:space="preserve">
<style type="text/css">
	.st0{fill:#FFFFFF;}
</style>
<g>
	<path class="st0" d="M143.2,48.1c0-4.9-4-8.9-8.9-8.9H43.6c-4.9,0-8.9,4-8.9,8.9v91.2H42v9.7h94.6v-9.7h6.6V48.1z M131.6,144H47
		v-4.7h84.6V144z M138.2,134.3H39.7V48.1c0-2.1,1.7-3.9,3.9-3.9h54.9v79.1h5V44.2h30.8c2.1,0,3.9,1.7,3.9,3.9V134.3z"/>
	<rect x="112.2" y="63.6" class="st0" width="16.7" height="5"/>
	<rect x="112.2" y="75.2" class="st0" width="16.7" height="5"/>
	<path class="st0" d="M77.8,65.4l6.3-6.3l-3.5-3.5l-6.3,6.3c-0.9-0.6-1.9-1-2.9-1.2v-8.8h-5v8.8c-1.1,0.3-2,0.7-2.9,1.2l-6.3-6.3
		l-3.5,3.5l6.3,6.3c-0.5,0.9-0.9,1.9-1.1,2.9h-9v5h9.1c0.3,1,0.7,1.9,1.2,2.7l-6.5,6.5l3.5,3.5l6.5-6.5c0.8,0.5,1.7,0.9,2.7,1.1v9.2
		h5v-9.2c1-0.2,1.9-0.6,2.7-1.1l6.5,6.5l3.5-3.5L77.6,76c0.5-0.8,0.9-1.8,1.2-2.7h9.1v-5h-9C78.7,67.3,78.3,66.3,77.8,65.4z
		 M68.8,75.9c-2.9,0-5.3-2.4-5.3-5.3s2.4-5.3,5.3-5.3s5.3,2.4,5.3,5.3S71.8,75.9,68.8,75.9z"/>
</g>
</svg>
