<?xml version="1.0" encoding="utf-8"?>
<!-- Generator: Adobe Illustrator 27.3.1, SVG Export Plug-In . SVG Version: 6.00 Build 0)  -->
<svg version="1.1" id="Слой_1" xmlns="http://www.w3.org/2000/svg" xmlns:xlink="http://www.w3.org/1999/xlink" x="0px" y="0px"
	 viewBox="0 0 177.4 177.4" style="enable-background:new 0 0 177.4 177.4;" xml:space="preserve">
<style type="text/css">
	.st0{fill:#FFFFFF;}
</style>
<path class="st0" d="M88.6,59.7c5.7,0,10.3-4.6,10.3-10.3c0-5.7-4.6-10.3-10.3-10.3s-10.3,4.6-10.3,10.3
	C78.2,55.1,82.9,59.7,88.6,59.7z M88.6,44c2.9,0,5.3,2.4,5.3,5.3s-2.4,5.3-5.3,5.3s-5.3-2.4-5.3-5.3S85.6,44,88.6,44z M130.5,145.4
	l-5.4-16l0.2-0.4l-0.5-0.3l-18.3-54.5c-1.2-3.5-4.5-5.9-8.2-5.9H78.6c-3.8,0-7.2,2.6-8.3,6.2l-20.9,70.8H28v5h119.9v-5H130.5z
	 M73.3,93.9h31l-15.5,10.4L73.3,93.9z M84.3,107.3l-23.1,15.5l7.7-26L84.3,107.3z M108.9,96.8l9.2,27.3l-24.8-16.8L108.9,96.8z
	 M75,76c0.5-1.6,1.9-2.6,3.5-2.6h19.7c1.6,0,3,1,3.5,2.5l4.4,13h-35L75,76z M59,130.4l29.8-20l31.9,21.6l4.5,13.5H54.6L59,130.4z
	 M64,49.6c0-6.8,2.7-13.1,7.6-17.8l3.5,3.6c-3.9,3.7-6.1,8.8-6.1,14.2c0,4.4,1.4,8.5,4.1,11.9l-4,3C65.7,60.2,64,55,64,49.6z
	 M107.8,49.6c0-5.4-2.2-10.4-6.1-14.2l3.5-3.6c4.9,4.7,7.6,11,7.6,17.8c0,5.4-1.7,10.5-5,14.8l-4-3C106.4,58,107.8,53.9,107.8,49.6z
	 M60,73.1c-5.3-6.6-8.3-14.8-8.3-23.3c0-10.3,4.3-20.2,11.9-27.1l3.4,3.7c-6.5,6-10.3,14.6-10.3,23.5c0,7.3,2.5,14.5,7.2,20.2
	L60,73.1z M109.7,26.4l3.4-3.7c7.5,7,11.9,16.9,11.9,27.1c0,8.5-2.9,16.7-8.3,23.3l-3.9-3.2c4.6-5.7,7.2-12.8,7.2-20.2
	C120,41,116.2,32.4,109.7,26.4z"/>
</svg>
