<?xml version="1.0" encoding="utf-8"?>
<!-- Generator: Adobe Illustrator 27.3.1, SVG Export Plug-In . SVG Version: 6.00 Build 0)  -->
<svg version="1.1" id="Слой_1" xmlns="http://www.w3.org/2000/svg" xmlns:xlink="http://www.w3.org/1999/xlink" x="0px" y="0px"
	 viewBox="0 0 177.4 177.4" style="enable-background:new 0 0 177.4 177.4;" xml:space="preserve">
<style type="text/css">
	.st0{fill:#FFFFFF;}
</style>
<path class="st0" d="M90.4,104.4C84.7,104.4,80,99.7,80,94s4.7-10.4,10.4-10.4s10.4,4.7,10.4,10.4S96.1,104.4,90.4,104.4z
	 M90.4,88.6c-3,0-5.4,2.4-5.4,5.4s2.4,5.4,5.4,5.4s5.4-2.4,5.4-5.4S93.4,88.6,90.4,88.6z M90.2,147.5c-6.4,0-12.7-1-18.7-3.1
	l-1.9-0.6l2.8-27c0.6-5,4.8-8.7,9.8-8.7h16.5c5,0,9.2,3.7,9.8,8.6l2.8,26.9l-1.9,0.7C103.2,146.4,96.7,147.5,90.2,147.5z M75,140.3
	c10,3,20.9,3,30.9-0.1l-2.4-22.9c-0.3-2.4-2.4-4.2-4.8-4.2H82.1c-2.4,0-4.5,1.8-4.8,4.2L75,140.3z M144.9,107.6
	c1.8-5.7,2.8-11.6,2.8-17.6c0-15.4-6.1-29.4-16-39.7c0.5-1.2,0.7-2.4,0.7-3.8c0-5.7-4.6-10.3-10.3-10.3c-2.4,0-4.7,0.9-6.5,2.3
	c-7.7-3.8-16.3-5.9-25.4-5.9c-5.3,0-10.5,0.7-15.4,2.1c-1.8-3-5.1-5-8.8-5c-5.7,0-10.3,4.6-10.3,10.3c0,1.3,0.3,2.5,0.7,3.7
	C45,52,36.8,64.3,33.9,78.5c-5.1,0.6-9,5-9,10.2c0,5.1,3.7,9.3,8.5,10.2c1.2,7.8,4,15.2,8.2,21.9c-1.4,1.8-2.3,4-2.3,6.5
	c0,5.7,4.6,10.3,10.3,10.3S60,132.9,60,127.2c0-4.2-2.5-7.7-6-9.4l7-37.6l27.3-13.4l41.5,43.1c-1.1,1.6-1.8,3.6-1.8,5.7
	c0,5.7,4.6,10.3,10.3,10.3s10.3-4.6,10.3-10.3C148.7,112.4,147.2,109.5,144.9,107.6z M142.6,90.1c0,5.2-0.8,10.4-2.3,15.4l-15-49.1
	c1.3-0.4,2.4-1.1,3.4-1.9C137.3,63.9,142.6,76.4,142.6,90.1z M122,41.3c2.9,0,5.3,2.4,5.3,5.3s-2.4,5.3-5.3,5.3s-5.3-2.4-5.3-5.3
	S119.1,41.3,122,41.3z M65.9,34.7c2.9,0,5.3,2.4,5.3,5.3s-2.4,5.3-5.3,5.3S60.6,43,60.6,40S63,34.7,65.9,34.7z M29.9,88.7
	c0-2.9,2.4-5.3,5.3-5.3s5.3,2.4,5.3,5.3S38.2,94,35.2,94S29.9,91.7,29.9,88.7z M55,127.2c0,2.9-2.4,5.3-5.3,5.3s-5.3-2.4-5.3-5.3
	s2.4-5.3,5.3-5.3S55,124.3,55,127.2z M49.1,116.9c-1.2,0.1-2.4,0.3-3.4,0.8c-3.6-5.9-6.1-12.4-7.2-19.2c4.1-1.4,7.1-5.2,7.1-9.8
	c0-0.3,0-0.6,0-0.9l9.9-4.9L49.1,116.9z M56.5,76.8l-12.7,6.2c-1.2-1.8-2.9-3.2-4.9-4C41.7,66.3,49,55.3,59.2,47.8
	c0.7,0.6,1.6,1.2,2.5,1.6L56.5,76.8z M62.1,74.1l4.4-23.7c1.6-0.1,3.2-0.6,4.5-1.4L84.6,63L62.1,74.1z M74.7,45.5
	c1-1.6,1.6-3.5,1.6-5.5c0-0.2,0-0.3,0-0.5c4.4-1.2,9.1-1.9,13.9-1.9c8,0,15.5,1.8,22.3,5c-0.5,1.2-0.8,2.6-0.8,4c0,1,0.2,2,0.4,2.9
	L89.4,60.7L74.7,45.5z M93,64.5l21.7-10.6c1.4,1.5,3.3,2.5,5.4,2.9l15,49.1c-0.6,0.2-1.1,0.4-1.7,0.7L93,64.5z M138.4,121
	c-2.9,0-5.3-2.4-5.3-5.3s2.4-5.3,5.3-5.3s5.3,2.4,5.3,5.3S141.3,121,138.4,121z"/>
</svg>
