<?xml version="1.0" encoding="utf-8"?>
<!-- Generator: Adobe Illustrator 27.3.1, SVG Export Plug-In . SVG Version: 6.00 Build 0)  -->
<svg version="1.1" id="Слой_1" xmlns="http://www.w3.org/2000/svg" xmlns:xlink="http://www.w3.org/1999/xlink" x="0px" y="0px"
	 viewBox="0 0 177.4 177.4" style="enable-background:new 0 0 177.4 177.4;" xml:space="preserve">
<style type="text/css">
	.st0{fill:#FFFFFF;}
</style>
<path class="st0" d="M145.2,100.7l11.3-9.6l-31.8-58.3l-35.3,0c-3.3,0-6.6,1-9.4,2.7l-6.2,3.9l-20-7.2L19.9,92.6l16.7,13.2
	c-1.3,1.5-2,3.4-2.1,5.4c-0.1,2.4,0.8,4.7,2.4,6.5c1.6,1.8,3.9,2.8,6.3,2.9c0,0,0.1,0,0.1,0c-0.1,2.4,0.6,4.8,2.4,6.7
	c1.8,1.9,4.2,2.9,6.7,2.9c1,0,2-0.2,3-0.5c0.2,1.8,1,3.6,2.3,5v0c1.8,1.9,4.2,2.9,6.7,2.9c2.2,0,4.4-0.8,6.2-2.4L73,133l7.9,7.6
	c2.4,2.3,5.4,3.4,8.5,3.4c2.9,0,5.8-1,8.2-3.1l4.9-4.4c1.3,0.4,2.6,0.6,3.9,0.6c3.1,0,6.2-1.1,8.7-3.3l5.2-4.6
	c2.8-0.2,5.5-1.2,7.7-3.2l2.6-2.3c1,0.3,2,0.4,3,0.4c2.4,0,4.8-0.9,6.8-2.6c2.1-1.9,3.4-4.6,3.5-7.4c0.1-2.8-1-5.6-3-7.6L91.9,57.1
	l-16.1,3.6l-2.1,9c-1.3,5.4-5.9,9.1-11.4,9.3l-0.3-26l20.6-13.1c2-1.3,4.4-2,6.8-2l32.4,0l28.4,52.1l-8.2,7L145.2,100.7z
	 M43.4,115.7c-1.1,0-2.1-0.5-2.8-1.3c-0.7-0.8-1.1-1.8-1.1-2.9c0-1.1,0.5-2.1,1.3-2.8l16.4-15.2c0.8-0.7,1.8-1.1,2.8-1.1
	c1.1,0,2.2,0.4,3,1.3c1.4,1.5,1.4,3.8,0.2,5.3c-0.2,0.1-0.3,0.3-0.5,0.4l-16.4,15.2c-0.1,0.1-0.3,0.3-0.4,0.4
	C45.1,115.4,44.3,115.7,43.4,115.7z M49.4,124c-1.4-1.5-1.4-3.8-0.2-5.3c0.2-0.1,0.3-0.3,0.5-0.4L66.2,103c0.1-0.1,0.3-0.3,0.4-0.4
	c0.7-0.4,1.4-0.7,2.2-0.7c0.1,0,0.1,0,0.2,0c1.1,0,2.1,0.5,2.8,1.3c0.7,0.8,1.1,1.8,1.1,2.9c0,1.1-0.5,2.1-1.3,2.8l-16.4,15.2
	C53.5,125.7,50.9,125.6,49.4,124z M67.1,131.6c-1.6,1.5-4.2,1.4-5.7-0.2c-1.5-1.6-1.4-4.2,0.2-5.7l8.4-7.7c0.8-0.7,1.8-1.1,2.9-1.1
	c1.1,0,2.1,0.5,2.8,1.3c0.7,0.8,1.1,1.8,1.1,2.9c0,1.1-0.5,2.1-1.3,2.8L67.1,131.6z M57.3,83.9h4.6c7.9,0,14.7-5.4,16.6-13.1
	l1.4-5.9l10.4-2.3l47,47.4c1,1.1,1.6,2.5,1.5,3.9c-0.1,1.5-0.7,2.8-1.8,3.8c-2.1,1.8-5.2,1.8-7.2-0.2l-20.3-19.3L106,102l20,19
	l-1.4,1.3c-3,2.7-7.7,2.6-10.6-0.2l-14.4-13.9l-3.5,3.6l14.4,13.9c1,1,2.2,1.8,3.5,2.4l-2.3,2c-3.2,2.8-8.1,2.7-11.1-0.3L90,118.8
	l-3.6,3.5l10.7,10.9c0.2,0.2,0.4,0.4,0.7,0.6l-3.6,3.2c-2.8,2.5-7.2,2.4-9.9-0.2l-7.6-7.4l2.1-2c1.8-1.6,2.8-3.9,2.9-6.3
	s-0.8-4.7-2.4-6.5c-1.1-1.2-2.5-2-4-2.5c1.5-1.6,2.4-3.7,2.5-5.9c0.1-2.4-0.8-4.7-2.4-6.5c-1.6-1.8-3.9-2.8-6.3-2.9c0,0-0.1,0-0.1,0
	c0.1-2.4-0.6-4.8-2.4-6.7c-3.4-3.7-9.1-3.9-12.8-0.5l-13.6,12.6l-13.9-11L56,38.5l12.4,4.4l-11.5,7.3L57.3,83.9z"/>
</svg>
