<?xml version="1.0" encoding="utf-8"?>
<!-- Generator: Adobe Illustrator 27.3.1, SVG Export Plug-In . SVG Version: 6.00 Build 0)  -->
<svg version="1.1" id="Слой_1" xmlns="http://www.w3.org/2000/svg" xmlns:xlink="http://www.w3.org/1999/xlink" x="0px" y="0px"
	 viewBox="0 0 177.4 177.4" style="enable-background:new 0 0 177.4 177.4;" xml:space="preserve">
<style type="text/css">
	.st0{fill:#2C5EDD;}
</style>
<g>
	<path class="st0" d="M154.2,98.7L150,64.7c-0.6-4.9-4.8-8.6-9.7-8.6H137h-9.4h-6.6c-4.9,0-9.1,3.7-9.7,8.6l-4.2,34
		c-0.4,3.3,1.5,6.6,4.6,7.8l5.9,2.4v36.4H91.2V78.2h-5v67.1H61.6v-41.7h-5v41.7H32.1v-14.9h-4.9l0,0h-0.1v19.9h90.5h0.7h24.8h0.7
		h4.1v-5h-4.1V109l5.9-2.4C152.7,105.3,154.6,102.1,154.2,98.7z M147.7,101.9l-8.9,3.7v39.7h-16.2v-39.7l-8.9-3.7
		c-1-0.4-1.7-1.5-1.5-2.6l4.2-34.1c0.3-2.4,2.3-4.2,4.7-4.2h6.6h9.4h3.3c2.4,0,4.5,1.8,4.7,4.2l4.2,34.1
		C149.4,100.4,148.7,101.5,147.7,101.9z"/>
	<polygon class="st0" points="86.2,40.6 86.2,56.6 27.2,115.7 27.2,122.8 91.2,58.7 91.2,40.6 97.9,47.3 101.4,43.8 88.7,31 
		76,43.8 79.5,47.3 	"/>
	<path class="st0" d="M129.8,52.4c5.7,0,10.3-4.6,10.3-10.3c0-5.7-4.6-10.3-10.3-10.3s-10.3,4.6-10.3,10.3
		C119.4,47.8,124.1,52.4,129.8,52.4z M129.8,36.8c2.9,0,5.3,2.4,5.3,5.3s-2.4,5.3-5.3,5.3s-5.3-2.4-5.3-5.3S126.8,36.8,129.8,36.8z"
		/>
</g>
</svg>
