<?xml version="1.0" encoding="utf-8"?>
<!-- Generator: Adobe Illustrator 27.3.1, SVG Export Plug-In . SVG Version: 6.00 Build 0)  -->
<svg version="1.1" id="Слой_1" xmlns="http://www.w3.org/2000/svg" xmlns:xlink="http://www.w3.org/1999/xlink" x="0px" y="0px"
	 viewBox="0 0 177.4 177.4" style="enable-background:new 0 0 177.4 177.4;" xml:space="preserve">
<style type="text/css">
	.st0{fill:#2C5EDD;}
</style>
<g>
	<path class="st0" d="M88.7,48c5.9,0,10.7-4.8,10.7-10.7s-4.8-10.7-10.7-10.7c-5.9,0-10.7,4.8-10.7,10.7S82.8,48,88.7,48z
		 M88.7,31.6c3.1,0,5.7,2.6,5.7,5.7S91.9,43,88.7,43S83,40.4,83,37.3S85.6,31.6,88.7,31.6z"/>
	<path class="st0" d="M125.9,52.4c5.7,0,10.3-4.6,10.3-10.3c0-5.7-4.6-10.3-10.3-10.3s-10.3,4.6-10.3,10.3
		C115.6,47.8,120.2,52.4,125.9,52.4z M125.9,36.8c2.9,0,5.3,2.4,5.3,5.3s-2.4,5.3-5.3,5.3s-5.3-2.4-5.3-5.3S122.9,36.8,125.9,36.8z"
		/>
	<path class="st0" d="M51.5,52.4c5.7,0,10.3-4.6,10.3-10.3c0-5.7-4.6-10.3-10.3-10.3s-10.3,4.6-10.3,10.3
		C41.2,47.8,45.8,52.4,51.5,52.4z M51.5,36.8c2.9,0,5.3,2.4,5.3,5.3s-2.4,5.3-5.3,5.3s-5.3-2.4-5.3-5.3S48.6,36.8,51.5,36.8z"/>
	<path class="st0" d="M150.3,98.7l-4.2-34.1c-0.6-4.9-4.8-8.6-9.7-8.6h-15.1l0.6,5h14.5c2.4,0,4.5,1.8,4.7,4.2l4.2,34.1
		c0.1,1.1-0.5,2.2-1.5,2.6l-8.9,3.7v39.7h-18v-30.8l-5,2v33.7h28V109l5.9-2.4C148.8,105.3,150.7,102.1,150.3,98.7z"/>
	<path class="st0" d="M60.5,114.5v30.8h-18v-39.7l-8.9-3.7c-1-0.4-1.7-1.5-1.5-2.6l4.2-34.1c0.3-2.4,2.3-4.2,4.7-4.2h14.5l0.6-5H41
		c-4.9,0-9.1,3.7-9.7,8.6l-4.2,34.1c-0.4,3.3,1.5,6.6,4.6,7.8l5.9,2.4v41.4h28v-33.8L60.5,114.5z"/>
	<path class="st0" d="M114.1,96.5l-4.4-35.6c-0.6-5.1-4.9-8.9-10-8.9h-22c-5.1,0-9.4,3.8-10,8.9l-4.4,35.6c-0.4,3.4,1.5,6.8,4.7,8.1
		l2.6,1.1L74,107l0,0l0.2,0.1v43.2h29v-43.2l6.2-2.6C112.6,103.3,114.6,99.9,114.1,96.5z M107.5,100l-9.3,3.8v41.6h-19v-41.6
		l-9.3-3.8c-1.1-0.5-1.8-1.6-1.7-2.8l4.4-35.6C73,59,75.2,57,77.7,57h22c2.6,0,4.8,1.9,5.1,4.5l4.4,35.6
		C109.3,98.3,108.6,99.5,107.5,100z"/>
</g>
</svg>
