<?xml version="1.0" encoding="UTF-8"?>
<!DOCTYPE svg PUBLIC "-//W3C//DTD SVG 1.1//EN" "http://www.w3.org/Graphics/SVG/1.1/DTD/svg11.dtd">
<!-- Creator: CorelDRAW 2020 (64-Bit) -->
<svg xmlns="http://www.w3.org/2000/svg" xml:space="preserve" width="1719px" height="769px" version="1.1" style="shape-rendering:geometricPrecision; text-rendering:geometricPrecision; image-rendering:optimizeQuality; fill-rule:evenodd; clip-rule:evenodd"
viewBox="0 0 1718.13 768.62"
 xmlns:xlink="http://www.w3.org/1999/xlink"
 xmlns:xodm="http://www.corel.com/coreldraw/odm/2003">
 <defs>
  <style type="text/css">
   <![CDATA[
    .fil0 {fill:white;fill-rule:nonzero}
   ]]>
  </style>
 </defs>
 <g id="Слой_x0020_1">
  <metadata id="CorelCorpID_0Corel-Layer"/>
  <g id="_2259997109616">
   <g>
    <polygon class="fil0" points="566.72,448 566.72,291.81 707.53,291.81 707.53,448 668.97,448 668.97,324.3 605.28,324.3 605.28,448 "/>
    <path class="fil0" d="M906.62 506.93l0 -215.12 35.96 0 0 22.96c3.9,-7.15 10.18,-13.21 18.63,-18.63 8.45,-5.2 19.06,-8.02 32.06,-8.02 20.8,0 37.05,6.5 48.74,19.29 11.7,12.78 17.55,32.06 17.55,57.84l0 5.85c0,17.76 -2.6,32.71 -8.01,44.62 -5.42,11.92 -13,20.8 -22.75,26.65 -9.75,5.85 -21.66,8.88 -35.31,8.88 -10.62,0 -19.93,-2.38 -28.16,-6.93 -8.24,-4.55 -14.73,-10.62 -19.93,-18.2l0 80.37 -38.78 0 0 0.44zm77.55 -88.39c10.19,0 18.85,-3.9 25.57,-11.7 6.93,-7.8 10.39,-19.5 10.39,-35.53l0 -5.85c0,-14.73 -3.24,-25.78 -9.96,-33.14 -6.5,-7.37 -15.38,-11.05 -26,-11.05 -7.36,0 -14.08,1.52 -19.93,4.33 -5.85,2.82 -10.39,7.15 -13.86,12.57 -3.25,5.63 -4.98,12.78 -4.98,21.45l0 17.76c0,9.31 1.51,16.9 4.76,23.18 3.25,6.28 7.8,10.83 13.65,13.65 5.85,2.81 12.56,4.33 20.36,4.33z"/>
    <path class="fil0" d="M1313.46 451.47c-14.3,0 -27.3,-3.03 -38.78,-8.88 -11.48,-6.07 -20.8,-14.95 -27.51,-26.87 -6.72,-11.91 -10.18,-26.64 -10.18,-44.41l0 -5.85c0,-16.89 3.46,-30.98 10.61,-42.46 7.15,-11.48 16.47,-19.93 27.95,-25.99 11.48,-5.85 24.26,-8.88 37.91,-8.88 14.73,0 27.3,2.38 37.48,7.36 10.18,4.98 18.19,11.7 23.61,20.37 5.63,8.66 8.88,18.19 9.53,28.59l-39.43 0c-1.51,-7.15 -4.76,-12.78 -9.53,-16.9 -4.76,-4.11 -12.13,-6.28 -21.66,-6.28 -6.72,0 -12.78,1.52 -18.42,4.77 -5.63,3.25 -10.18,8.01 -13.64,14.51 -3.47,6.5 -5.2,14.73 -5.2,25.13l0 5.85c0,11.05 1.51,19.93 4.76,26.86 3.25,6.93 7.59,12.13 13.22,15.38 5.63,3.25 11.91,4.77 19.06,4.77 7.58,0 14.3,-1.95 19.93,-6.07 5.64,-4.11 9.32,-9.75 11.27,-17.33l39.42 0c-1.08,11.27 -4.98,21.02 -11.26,29.68 -6.28,8.67 -14.52,15.17 -24.91,19.72 -9.97,4.76 -21.45,6.93 -34.23,6.93z"/>
    <path class="fil0" d="M628.24 713.16c-13,0 -24.48,-2.16 -34.66,-6.71 -10.18,-4.55 -18.41,-11.05 -24.7,-19.72 -6.28,-8.66 -9.96,-18.63 -11.26,-29.68l39.43 0c1.95,7.37 5.85,13.22 11.26,17.34 5.63,4.11 12.13,6.06 19.93,6.06 10.62,0 18.85,-2.81 25.13,-8.45 6.07,-5.63 9.75,-13.86 11.48,-26.43l-54.59 0 0 -27.08 54.59 0c-1.51,-11.26 -5.63,-21.44 -11.91,-26.86 -6.28,-5.42 -14.52,-8.02 -24.48,-8.02 -9.53,0 -16.9,2.17 -21.67,6.29 -4.76,4.33 -8.01,9.96 -9.53,16.89l-39.42 0c0.86,-10.39 3.89,-19.93 9.53,-28.59 5.63,-8.67 13.65,-15.38 23.83,-20.36 10.39,-4.99 22.74,-7.37 37.26,-7.37 14.73,0 27.94,3.03 39.42,8.88 11.49,5.85 20.58,14.52 27.3,26 6.5,11.48 9.97,25.56 9.97,42.46l0 5.85c0,17.76 -3.25,32.49 -9.54,44.41 -6.28,11.91 -15.16,20.79 -26.64,26.86 -11.7,5.42 -25.13,8.23 -40.73,8.23z"/>
    <path class="fil0" d="M730.06 713.16c-1.52,0 -3.47,0 -5.85,-0.21 -2.38,0 -4.33,-0.44 -5.85,-0.65l0 -34.88c0.65,0.21 2.17,0.21 4.34,0.21 5.2,0 9.31,-2.16 12.56,-6.28 3.25,-4.11 5.63,-11.48 7.15,-21.88 1.52,-10.4 2.38,-24.69 2.38,-42.68l0 -53.07 123.7 0 0 156.19 -38.78 0 0 -123.7 -48.96 0 0 26.22c0,20.14 -1.08,36.83 -3.03,50.04 -2.17,13.22 -5.2,23.4 -9.53,30.76 -4.33,7.37 -9.53,12.57 -15.81,15.38 -6.29,3.25 -13.65,4.55 -22.32,4.55z"/>
    <path class="fil0" d="M972.26 713.16c-14.08,0 -27.08,-2.81 -39,-8.66 -11.91,-5.85 -21.44,-14.73 -28.38,-26.43 -7.14,-11.92 -10.61,-26.86 -10.61,-44.84l0 -5.85c0,-17.33 3.47,-31.63 10.18,-43.11 6.72,-11.49 15.82,-19.94 27.3,-25.57 11.48,-5.63 24.04,-8.45 37.69,-8.45 24.48,0 43.11,6.5 55.89,19.5 12.79,13 19.07,31.63 19.07,56.33l0 16.46 -110.49 0c0.44,9.31 2.39,16.68 6.07,22.53 3.68,5.85 8.23,9.96 14.08,12.56 5.64,2.6 11.7,3.9 18.2,3.9 9.96,0 17.55,-1.51 22.75,-4.33 5.2,-3.03 8.66,-7.36 10.83,-13l35.74 0c-3.25,16.25 -10.83,28.6 -23.18,36.83 -12.56,8.02 -27.94,12.13 -46.14,12.13zm-1.52 -131.28c-6.06,0 -11.91,1.08 -17.76,3.03 -5.64,1.95 -10.18,5.42 -13.65,10.4 -3.25,4.99 -5.2,11.7 -5.63,19.93l72.79 0c-0.22,-8.88 -1.95,-15.59 -5.2,-20.58 -3.25,-4.76 -7.59,-8.23 -12.79,-9.96 -5.19,-1.95 -11.04,-2.82 -17.76,-2.82z"/>
    <polygon class="fil0" points="1280.31,709.7 1280.31,586 1230.49,586 1230.49,553.5 1368.7,553.5 1368.7,586 1319.31,586 1319.31,709.7 "/>
    <path class="fil0" d="M1389.71 768.62l0 -215.12 35.97 0 0 22.97c3.9,-7.15 10.18,-13.22 18.63,-18.63 8.45,-5.2 19.06,-8.02 32.06,-8.02 20.8,0 37.04,6.5 48.74,19.28 11.7,12.78 17.55,32.06 17.55,57.84l0 5.85c0,17.77 -2.6,32.71 -8.02,44.63 -5.41,11.91 -13,20.8 -22.74,26.64 -9.75,5.85 -21.67,8.89 -35.32,8.89 -10.61,0 -19.93,-2.39 -28.16,-6.94 -8.23,-4.55 -14.73,-10.61 -19.93,-18.19l0 80.37 -38.78 0 0 0.43zm77.34 -88.39c10.18,0 18.85,-3.9 25.57,-11.69 6.93,-7.8 10.39,-19.5 10.39,-35.53l0 -5.85c0,-14.73 -3.25,-25.78 -9.96,-33.15 -6.5,-7.36 -15.17,-11.04 -26,-11.04 -7.36,0 -14.08,1.51 -19.93,4.33 -5.85,2.81 -10.4,7.15 -13.86,12.56 -3.25,5.64 -4.98,12.79 -4.98,21.45l0 17.76c0,9.32 1.51,16.9 4.76,23.18 3.25,6.29 7.8,10.84 13.65,13.65 6.07,2.82 12.78,4.33 20.36,4.33z"/>
    <path class="fil0" d="M1640.14 713.16c-14.08,0 -27.07,-2.81 -38.99,-8.66 -11.92,-5.85 -21.45,-14.73 -28.38,-26.43 -7.15,-11.92 -10.61,-26.86 -10.61,-44.84l0 -5.85c0,-17.12 3.46,-31.42 10.61,-42.68 7.15,-11.48 16.46,-19.93 28.38,-25.78 11.92,-5.85 24.91,-8.67 38.99,-8.67 14.09,0 27.08,2.82 39,8.67 11.91,5.85 21.45,14.3 28.38,25.78 7.15,11.48 10.61,25.56 10.61,42.68l0 5.85c0,17.76 -3.46,32.49 -10.61,44.41 -7.15,11.91 -16.47,20.79 -28.38,26.86 -11.92,5.85 -24.91,8.66 -39,8.66zm0 -32.93c7.37,0 14.09,-1.73 19.94,-5.2 5.84,-3.46 10.39,-8.66 13.64,-15.81 3.25,-7.15 4.99,-15.81 4.99,-26.21l0 -5.85c0,-9.53 -1.74,-17.77 -4.99,-24.05 -3.25,-6.5 -8.01,-11.48 -13.64,-14.95 -5.85,-3.46 -12.35,-5.2 -19.94,-5.2 -7.36,0 -14.08,1.74 -19.93,5.2 -5.84,3.47 -10.39,8.45 -13.64,14.95 -3.25,6.5 -4.99,14.52 -4.99,24.05l0 5.85c0,10.61 1.74,19.5 4.99,26.43 3.24,6.93 7.8,12.13 13.64,15.59 5.85,3.47 12.35,5.2 19.93,5.2z"/>
    <g>
     <g>
      <g>
       <path class="fil0" d="M346.62 285.96l55.67 -285.96 -37.69 36.61c-55.68,54.38 -117.42,136.7 -174.61,229.2 -108.32,22.75 -189.99,119.15 -189.99,234.18 0,131.72 107.45,239.38 239.17,239.38 131.71,0 239.38,-107.45 239.38,-239.38 0.21,-93.58 -53.73,-174.6 -131.93,-214.03l0 0zm29.46 -237.65l-44.84 230.5 -62.83 321.49 -203.85 -50.7c2.38,-5.85 4.55,-11.91 7.15,-17.76 0.86,-1.73 1.51,-3.47 2.16,-5.2 1.74,-4.33 3.47,-8.45 5.42,-12.78 0.87,-1.95 1.51,-3.68 2.38,-5.64 1.95,-4.11 3.68,-8.23 5.42,-12.34 0.86,-1.95 1.73,-3.69 2.38,-5.42 1.95,-4.33 3.68,-8.45 5.63,-12.78 0.87,-1.52 1.52,-3.25 2.17,-4.77 2.17,-4.55 4.11,-8.88 6.28,-13.43 0.65,-1.51 1.3,-2.81 1.95,-4.33 2.17,-4.55 4.55,-9.32 6.72,-13.87 0.65,-1.3 1.3,-2.6 1.95,-3.68 2.38,-4.98 4.76,-9.75 7.14,-14.73 0.44,-1.08 1.09,-1.95 1.52,-3.03 2.6,-4.99 5.2,-10.18 7.8,-15.17 0.43,-0.86 0.87,-1.73 1.3,-2.38 2.6,-5.42 5.42,-10.62 8.23,-15.81 0.22,-0.65 0.65,-1.09 0.87,-1.74 2.81,-5.41 5.85,-11.05 8.66,-16.46 0.22,-0.43 0.44,-0.87 0.65,-1.3 3.03,-5.63 6.07,-11.27 9.32,-16.9 0.21,-0.21 0.21,-0.43 0.43,-0.87 3.25,-5.63 6.5,-11.48 9.75,-17.33 0,0 0,-0.21 0.22,-0.21 3.24,-5.85 6.71,-11.7 9.96,-17.55l0 0c10.18,-17.55 20.8,-34.88 31.41,-51.77 54.38,-86.66 112.44,-162.91 164.65,-214.04l0 0zm-89.47 600.3l-239.6 -41.82 212.09 5.64 67.8 1.73 -40.29 34.45z"/>
      </g>
     </g>
    </g>
    <polygon class="fil0" points="1217.49,553.72 1175.46,553.72 1137.55,615.89 1109.17,615.89 1109.17,553.72 1070.61,553.72 1070.61,709.7 1109.17,709.7 1109.17,647.31 1137.55,647.31 1175.46,709.7 1217.49,709.7 1172,631.71 "/>
    <path class="fil0" d="M866.54 313.25c-5.42,-8.66 -13.21,-15.16 -23.18,-19.06 -9.96,-3.9 -21.45,-5.85 -34.88,-5.85 -13.65,0 -25.56,2.17 -35.09,6.28 -9.75,4.34 -17.12,9.97 -22.32,17.12 -5.2,7.15 -8.01,15.16 -8.66,24.26l38.78 0c0.65,-4.55 2.81,-8.23 6.71,-11.26 3.9,-3.04 10.4,-4.55 19.07,-4.55 9.96,0 17.33,2.16 21.88,6.28 4.55,4.12 6.93,11.26 6.93,21.45l0 7.36 -46.58 0c-18.63,0 -32.71,3.9 -42.02,11.7 -9.32,7.8 -14.09,19.71 -14.09,35.31 0,9.53 2.17,17.77 6.29,25.35 4.11,7.36 10.18,13.21 17.98,17.54 7.8,4.12 17.33,6.29 28.59,6.29 13.65,0 24.7,-2.39 33.58,-7.15 8.88,-4.77 15.38,-10.18 19.5,-16.47l0 19.93 35.74 0 0 0 0 -99.65c0.22,-14.29 -2.6,-26.21 -8.23,-34.88zm-30.54 75.83c0,7.36 -1.74,13.65 -5.42,18.41 -3.68,4.77 -8.45,8.45 -14.08,10.62 -5.85,2.16 -11.92,3.46 -18.2,3.46 -8.23,0 -14.51,-1.95 -18.85,-5.63 -4.33,-3.68 -6.5,-8.67 -6.5,-14.95 0,-5.85 2.17,-10.61 6.29,-14.08 4.11,-3.47 9.96,-5.2 17.54,-5.2l39.22 0 0 7.37z"/>
    <path class="fil0" d="M1189.76 291.81l-28.6 119.15 -18.19 0c-2.82,0 -5.42,-1.95 -6.07,-4.77l-27.29 -114.38 -39.65 0 32.5 131.06c3.68,14.73 16.89,25.13 32.06,25.13l17.55 0 -2.17 9.32c-2.38,9.53 -10.83,16.24 -20.58,16.24l-21.23 0 -8.02 33.37 34.02 0c24.91,0 46.57,-17.12 52.64,-41.16l42.67 -173.96 -39.64 0z"/>
   </g>
  </g>
 </g>
</svg>
