<?xml version="1.0" encoding="utf-8"?>
<!-- Generator: Adobe Illustrator 27.3.1, SVG Export Plug-In . SVG Version: 6.00 Build 0)  -->
<svg version="1.1" id="Слой_1" xmlns="http://www.w3.org/2000/svg" xmlns:xlink="http://www.w3.org/1999/xlink" x="0px" y="0px"
	 viewBox="0 0 1576 538.7" style="enable-background:new 0 0 1576 538.7;" xml:space="preserve">
<style type="text/css">
	.st0{fill:#232323;}
	.st1{fill:#2C5EDD;}
	.st2{fill:#FFFFFF;}
</style>
<rect x="-23.5" y="-12.2" class="st1" width="1644.7" height="579.9"/>
<path class="st2" d="M443.2,329.1V257h65v72.1h-17.8V272h-29.4v57.1H443.2z"/>
<path class="st2" d="M600.2,356.3V257h16.6v10.6c1.8-3.3,4.7-6.1,8.6-8.6c3.9-2.4,8.8-3.7,14.8-3.7c9.6,0,17.1,3,22.5,8.9
	c5.4,5.9,8.1,14.8,8.1,26.7v2.7c0,8.2-1.2,15.1-3.7,20.6c-2.5,5.5-6,9.6-10.5,12.3c-4.5,2.7-10,4.1-16.3,4.1c-4.9,0-9.2-1.1-13-3.2
	c-3.8-2.1-6.8-4.9-9.2-8.4v37.1H600.2z M635.9,315.5c4.7,0,8.7-1.8,11.8-5.4c3.2-3.6,4.8-9,4.8-16.4V291c0-6.8-1.5-11.9-4.6-15.3
	c-3-3.4-7.1-5.1-12-5.1c-3.4,0-6.5,0.7-9.2,2c-2.7,1.3-4.8,3.3-6.4,5.8c-1.5,2.6-2.3,5.9-2.3,9.9v8.2c0,4.3,0.7,7.8,2.2,10.7
	c1.5,2.9,3.6,5,6.3,6.3C629.3,314.8,632.4,315.5,635.9,315.5z"/>
<path class="st2" d="M788,330.7c-6.6,0-12.6-1.4-17.9-4.1c-5.3-2.8-9.6-6.9-12.7-12.4c-3.1-5.5-4.7-12.3-4.7-20.5V291
	c0-7.8,1.6-14.3,4.9-19.6c3.3-5.3,7.6-9.2,12.9-12c5.3-2.7,11.2-4.1,17.5-4.1c6.8,0,12.6,1.1,17.3,3.4c4.7,2.3,8.4,5.4,10.9,9.4
	c2.6,4,4.1,8.4,4.4,13.2h-18.2c-0.7-3.3-2.2-5.9-4.4-7.8c-2.2-1.9-5.6-2.9-10-2.9c-3.1,0-5.9,0.7-8.5,2.2c-2.6,1.5-4.7,3.7-6.3,6.7
	c-1.6,3-2.4,6.8-2.4,11.6v2.7c0,5.1,0.7,9.2,2.2,12.4c1.5,3.2,3.5,5.6,6.1,7.1c2.6,1.5,5.5,2.2,8.8,2.2c3.5,0,6.6-0.9,9.2-2.8
	c2.6-1.9,4.3-4.5,5.2-8h18.2c-0.5,5.2-2.3,9.7-5.2,13.7c-2.9,4-6.7,7-11.5,9.1C799.2,329.7,793.9,330.7,788,330.7z"/>
<path class="st2" d="M893.7,330.7c-6,0-11.3-1-16-3.1c-4.7-2.1-8.5-5.1-11.4-9.1c-2.9-4-4.6-8.6-5.2-13.7h18.2
	c0.9,3.4,2.7,6.1,5.2,8c2.6,1.9,5.6,2.8,9.2,2.8c4.9,0,8.7-1.3,11.6-3.9c2.8-2.6,4.5-6.4,5.3-12.2h-25.2v-12.5l25.2,0
	c-0.7-5.2-2.6-9.9-5.5-12.4c-2.9-2.5-6.7-3.7-11.3-3.7c-4.4,0-7.8,1-10,2.9c-2.2,2-3.7,4.6-4.4,7.8H861c0.4-4.8,1.8-9.2,4.4-13.2
	c2.6-4,6.3-7.1,11-9.4c4.8-2.3,10.5-3.4,17.2-3.4c6.8,0,12.9,1.4,18.2,4.1c5.3,2.7,9.5,6.7,12.6,12c3,5.3,4.6,11.8,4.6,19.6v2.7
	c0,8.2-1.5,15-4.4,20.5c-2.9,5.5-7,9.6-12.3,12.4C907,329.3,900.8,330.7,893.7,330.7z"/>
<path class="st2" d="M940.7,330.7c-0.7,0-1.6,0-2.7-0.1c-1.1,0-2-0.2-2.7-0.3v-16.2c0.3,0.1,1,0.1,2,0.1c2.4,0,4.3-1,5.8-2.9
	c1.5-1.9,2.6-5.3,3.3-10.1c0.7-4.8,1.1-11.4,1.1-19.7V257h57.1v72.1h-17.9V272H964v12.2c0,9.3-0.5,17-1.4,23.1
	c-1,6.1-2.4,10.8-4.4,14.2c-2,3.4-4.4,5.8-7.3,7.1C948.1,330,944.6,330.7,940.7,330.7z"/>
<path class="st2" d="M1052.4,330.7c-6.5,0-12.5-1.3-18-4c-5.5-2.7-9.9-6.8-13.1-12.2c-3.3-5.5-4.9-12.4-4.9-20.7V291
	c0-8,1.6-14.6,4.7-19.9c3.1-5.3,7.3-9.2,12.6-11.8c5.3-2.6,11.1-3.9,17.4-3.9c11.3,0,19.9,3,25.8,9c5.9,6,8.8,14.6,8.8,26v7.6h-51
	c0.2,4.3,1.1,7.7,2.8,10.4c1.7,2.7,3.8,4.6,6.5,5.8c2.6,1.2,5.4,1.8,8.4,1.8c4.6,0,8.1-0.7,10.5-2c2.4-1.4,4-3.4,5-6h16.5
	c-1.5,7.5-5,13.2-10.7,17C1067.9,328.8,1060.9,330.7,1052.4,330.7z M1051.7,270.1c-2.8,0-5.5,0.5-8.2,1.4c-2.6,0.9-4.7,2.5-6.3,4.8
	c-1.5,2.3-2.4,5.4-2.6,9.2h33.6c-0.1-4.1-0.9-7.2-2.4-9.5c-1.5-2.2-3.5-3.8-5.9-4.6C1057.6,270.5,1054.8,270.1,1051.7,270.1z"/>
<path class="st2" d="M1194.7,329.1V272h-23v-15h63.8v15h-22.8v57.1H1194.7z"/>
<path class="st2" d="M1245.1,356.3V257h16.6v10.6c1.8-3.3,4.7-6.1,8.6-8.6c3.9-2.4,8.8-3.7,14.8-3.7c9.6,0,17.1,3,22.5,8.9
	c5.4,5.9,8.1,14.8,8.1,26.7v2.7c0,8.2-1.2,15.1-3.7,20.6c-2.5,5.5-6,9.6-10.5,12.3c-4.5,2.7-10,4.1-16.3,4.1c-4.9,0-9.2-1.1-13-3.2
	c-3.8-2.1-6.8-4.9-9.2-8.4v37.1H1245.1z M1280.9,315.5c4.7,0,8.7-1.8,11.8-5.4c3.2-3.6,4.8-9,4.8-16.4V291c0-6.8-1.5-11.9-4.6-15.3
	c-3-3.4-7-5.1-12-5.1c-3.4,0-6.5,0.7-9.2,2c-2.7,1.3-4.8,3.3-6.4,5.8c-1.5,2.6-2.3,5.9-2.3,9.9v8.2c0,4.3,0.7,7.8,2.2,10.7
	s3.6,5,6.3,6.3S1277.4,315.5,1280.9,315.5z"/>
<path class="st2" d="M1360.7,330.7c-6.5,0-12.5-1.3-18-4c-5.5-2.7-9.9-6.8-13.1-12.2c-3.3-5.5-4.9-12.4-4.9-20.7V291
	c0-7.9,1.6-14.5,4.9-19.7c3.3-5.3,7.6-9.2,13.1-11.9c5.5-2.7,11.5-4,18-4s12.5,1.3,18,4c5.5,2.7,9.9,6.6,13.1,11.9
	c3.3,5.3,4.9,11.8,4.9,19.7v2.7c0,8.2-1.6,15-4.9,20.5c-3.3,5.5-7.6,9.6-13.1,12.4C1373.3,329.3,1367.3,330.7,1360.7,330.7z
	 M1360.7,315.5c3.4,0,6.5-0.8,9.2-2.4c2.7-1.6,4.8-4,6.3-7.3c1.5-3.3,2.3-7.3,2.3-12.1V291c0-4.4-0.8-8.2-2.3-11.1
	c-1.5-3-3.7-5.3-6.3-6.9c-2.7-1.6-5.7-2.4-9.2-2.4c-3.4,0-6.5,0.8-9.2,2.4c-2.7,1.6-4.8,3.9-6.3,6.9c-1.5,3-2.3,6.7-2.3,11.1v2.7
	c0,4.9,0.8,9,2.3,12.2c1.5,3.2,3.6,5.6,6.3,7.2C1354.2,314.7,1357.3,315.5,1360.7,315.5z"/>
<polygon class="st2" points="1165.7,257 1146.2,257 1128.7,285.8 1115.7,285.8 1115.7,257 1097.8,257 1097.8,329.1 1115.7,329.1 
	1115.7,300.3 1128.7,300.3 1146.2,329.1 1165.7,329.1 1144.7,293 "/>
<path class="st2" d="M581.7,266.9c-2.5-4-6.1-7-10.7-8.8c-4.6-1.8-9.9-2.7-16.1-2.7c-6.3,0-11.8,1-16.2,2.9c-4.5,2-7.9,4.6-10.3,7.9
	c-2.4,3.3-3.7,7-4,11.2h17.9c0.3-2.1,1.3-3.8,3.1-5.2c1.8-1.4,4.8-2.1,8.8-2.1c4.6,0,8,1,10.1,2.9c2.1,1.9,3.2,5.2,3.2,9.9v3.4
	h-21.5c-8.6,0-15.1,1.8-19.4,5.4c-4.3,3.6-6.5,9.1-6.5,16.3c0,4.4,1,8.2,2.9,11.7c1.9,3.4,4.7,6.1,8.3,8.1c3.6,1.9,8,2.9,13.2,2.9
	c6.3,0,11.4-1.1,15.5-3.3c4.1-2.2,7.1-4.7,9-7.6v9.2h16.5l0,0v-46C585.5,276.3,584.3,270.9,581.7,266.9z M567.6,301.9
	c0,3.4-0.8,6.3-2.5,8.5c-1.7,2.2-3.9,3.9-6.5,4.9c-2.7,1-5.5,1.6-8.4,1.6c-3.8,0-6.7-0.9-8.7-2.6c-2-1.7-3-4-3-6.9
	c0-2.7,1-4.9,2.9-6.5c1.9-1.6,4.6-2.4,8.1-2.4h18.1V301.9z"/>
<path class="st2" d="M730.8,257l-13.2,55h-8.4c-1.3,0-2.5-0.9-2.8-2.2L693.9,257h-18.3l15,60.5c1.7,6.8,7.8,11.6,14.8,11.6h8.1
	l-1,4.3c-1.1,4.4-5,7.5-9.5,7.5h-9.8l-3.7,15.4h15.7c11.5,0,21.5-7.9,24.3-19l19.7-80.2H730.8z"/>
<path class="st2" d="M335.8,211.6l20.8-106.8l-14,13.7c-20.8,20.3-43.9,51-65.2,85.5c-40.4,8.5-70.9,44.5-70.9,87.4
	c0,49.2,40.1,89.3,89.3,89.3c49.2,0,89.3-40.1,89.3-89.3C385.1,256.5,365,226.3,335.8,211.6 M346.9,122.8l-16.8,86.1l-23.4,120
	l-76.1-19c0.9-2.2,1.7-4.4,2.6-6.6c0.3-0.6,0.5-1.3,0.8-2c0.7-1.6,1.3-3.1,2-4.7c0.3-0.7,0.6-1.4,0.9-2.1c0.7-1.6,1.3-3.1,2-4.6
	c0.3-0.7,0.6-1.3,0.9-2c0.7-1.6,1.4-3.2,2.1-4.8c0.3-0.6,0.6-1.2,0.8-1.8c0.8-1.7,1.6-3.3,2.3-5c0.2-0.5,0.5-1.1,0.8-1.6
	c0.8-1.7,1.7-3.5,2.5-5.2c0.2-0.5,0.5-0.9,0.7-1.4c0.9-1.9,1.8-3.7,2.7-5.5c0.2-0.4,0.4-0.8,0.6-1.2c0.9-1.9,1.9-3.8,2.9-5.7
	c0.1-0.3,0.3-0.6,0.5-0.9c1-2,2-3.9,3.1-5.9c0.1-0.2,0.2-0.4,0.4-0.7c1.1-2.1,2.2-4.1,3.3-6.1c0.1-0.2,0.2-0.3,0.2-0.5
	c1.2-2.1,2.3-4.2,3.4-6.3c0.1-0.1,0.1-0.2,0.2-0.3c1.2-2.1,2.4-4.3,3.6-6.4c0,0,0-0.1,0.1-0.1c1.2-2.2,2.5-4.4,3.7-6.5l0,0
	c3.8-6.6,7.7-13,11.7-19.4C305.7,170.4,327.3,141.9,346.9,122.8 M313.5,346.9L224,331.3l79.2,2.1l25.3,0.7L313.5,346.9z"/>
</svg>
