<?xml version="1.0" encoding="utf-8"?>
<!-- Generator: Adobe Illustrator 27.3.1, SVG Export Plug-In . SVG Version: 6.00 Build 0)  -->
<svg version="1.1" id="Слой_1" xmlns="http://www.w3.org/2000/svg" xmlns:xlink="http://www.w3.org/1999/xlink" x="0px" y="0px"
	 viewBox="0 0 177.4 177.4" style="enable-background:new 0 0 177.4 177.4;" xml:space="preserve">
<style type="text/css">
	.st0{fill:#1D62AD;}
</style>
<path class="st0" d="M150.4,76.1v2.5c0,8.7-6.4,15.9-14.8,17.1v26.4c0,7.6-6.2,13.8-13.8,13.8c-7.6,0-13.8-6.2-13.8-13.8V96
	c0-10.7-8.7-19.3-19.3-19.3v0h-2.5V42.3c0-5.5-4.5-10-10-10H42c-5.5,0-10,4.5-10,10v103.3h54.1V89h5v61.8h-5v-0.2H27.1V42.3
	c0-8.2,6.7-15,15-15h34.2c8.2,0,15,6.7,15,15v29.5c12.3,1.3,21.8,11.6,21.8,24.2v26c0,4.8,3.9,8.8,8.8,8.8s8.8-3.9,8.8-8.8V90.9h2.5
	c5.9,0,10.9-4.2,12-9.8h-26.8v-5h6.2V59.7h5v16.4h8.9V59.7h5v16.4H150.4z M39,42.1h40.4v29H39V42.1z M44,66.1h30.4v-19H44V66.1z"/>
</svg>
