<?xml version="1.0" encoding="utf-8"?>
<!-- Generator: Adobe Illustrator 27.3.1, SVG Export Plug-In . SVG Version: 6.00 Build 0)  -->
<svg version="1.1" id="Слой_1" xmlns="http://www.w3.org/2000/svg" xmlns:xlink="http://www.w3.org/1999/xlink" x="0px" y="0px"
	 viewBox="0 0 177.4 177.4" style="enable-background:new 0 0 177.4 177.4;" xml:space="preserve">
<style type="text/css">
	.st0{fill:#1D62AD;}
</style>
<path class="st0" d="M143,47.3c0-4.9-4-8.9-8.9-8.9H43.4c-4.9,0-8.9,4-8.9,8.9v91.2h7.3v9.7h94.6v-9.7h6.6V47.3z M131.4,143.2H46.8
	v-4.7h84.6V143.2z M138,133.6H39.5V47.3c0-2.1,1.7-3.9,3.9-3.9h54.9v79.1h5V43.5h30.8c2.1,0,3.9,1.7,3.9,3.9V133.6z M54.4,81.9H83
	V53.6H54.4V81.9z M59.4,58.6H78v18.2H59.4V58.6z M54.4,124.3H83V96.1H54.4V124.3z M59.4,101.1H78v18.2H59.4V101.1z M79.9,85.8v5h-23
	v-5H79.9z"/>
</svg>
