<?xml version="1.0" encoding="utf-8"?>
<!-- Generator: Adobe Illustrator 27.3.1, SVG Export Plug-In . SVG Version: 6.00 Build 0)  -->
<svg version="1.1" id="Слой_1" xmlns="http://www.w3.org/2000/svg" xmlns:xlink="http://www.w3.org/1999/xlink" x="0px" y="0px"
	 viewBox="0 0 177.4 177.4" style="enable-background:new 0 0 177.4 177.4;" xml:space="preserve">
<style type="text/css">
	.st0{fill:#1D62AD;}
</style>
<path class="st0" d="M143.6,118h-13.4c7.2-9,11.2-20.2,11.2-32c0-28.2-22.9-51.1-51-51.2c0,0-0.1,0-0.1,0c0,0,0,0,0,0
	c0,0-0.1,0-0.1,0C61.9,34.8,39,57.8,39,86c0,5.1,0.8,10.1,2.2,15H26.9v48.4h17.6v-4.9h53.3l47.6-13.3c2.9-0.8,4.9-3.5,4.9-6.5
	C150.4,121,147.3,118,143.6,118z M111.1,83.5c-0.1-6.3-0.7-12.3-1.6-17.7c6.5-0.9,13-2.5,19.3-4.9c4.3,6.6,7,14.3,7.4,22.7H111.1z
	 M44,83.5c0.4-8.3,3.1-16,7.3-22.5c3.7,1.1,10.7,2.9,19.7,4.3c-1,5.6-1.5,11.7-1.6,18.3H44z M76.1,65.9c5.2,0.6,10.9,1,16.8,1
	c3.8,0,7.7-0.2,11.7-0.6c0.9,5.2,1.4,10.9,1.6,17.1H74.5C74.6,77.1,75.2,71.2,76.1,65.9z M90.3,39.8C90.3,39.8,90.3,39.8,90.3,39.8
	c5,0.1,10.3,8.3,13.3,21.6c-9.4,0.8-18.5,0.4-26.5-0.5C80.2,47.9,85.4,39.9,90.3,39.8z M125.8,56.7c-5.6,2-11.4,3.4-17.2,4.2
	c-1.9-8.4-4.7-15.3-8.1-19.8C110.6,43.3,119.5,49,125.8,56.7z M80.1,40.9c-3.4,4.4-6.1,11.1-8,19.3c-7.6-1.1-13.7-2.6-17.6-3.6
	C61,48.9,69.9,43.2,80.1,40.9z M44,88.5h25.4c0.1,3.1,0.2,6.2,0.5,9.2c-4.8-0.2-9.7,1-14.1,3.5l-8,4.8C47.9,106.1,43.7,95.9,44,88.5
	z M144.1,126.4l-47,13.1H44.4v4.9H31.9V106H42v19.2h5v-12.7l11.5-6.8c6.6-3.9,14.7-3.8,21.2,0.3l9,5.7h15.8c1.8,0,3.2,1.4,3.2,3.2
	s-1.4,3.2-3.2,3.2H77v5h27.5c4.5,0,8.2-3.7,8.2-8.2c0-4.5-3.7-8.2-8.2-8.2H90.1l-7.8-4.9c-2.3-1.4-4.8-2.5-7.3-3.1
	c-0.3-3.3-0.5-6.6-0.6-10h31.7c-0.1,3.3-0.4,5.4-0.8,8.8l-0.2,1.2l5,0.7l0.2-1.2c0.5-3.5,0.8-5.8,0.9-9.5h25.2
	c-0.6,11.1-5.1,21.4-12.8,29.5h-5.3v5h25.4c0.9,0,1.7,0.8,1.7,1.7C145.4,125.5,144.8,126.1,144.1,126.4z"/>
</svg>
