<?xml version="1.0" encoding="utf-8"?>
<!-- Generator: Adobe Illustrator 27.3.1, SVG Export Plug-In . SVG Version: 6.00 Build 0)  -->
<svg version="1.1" id="Слой_1" xmlns="http://www.w3.org/2000/svg" xmlns:xlink="http://www.w3.org/1999/xlink" x="0px" y="0px"
	 viewBox="0 0 1144.5 562.8" style="enable-background:new 0 0 1144.5 562.8;" xml:space="preserve">
<style type="text/css">
	.st0{fill:#232323;}
	.st1{fill:#2C5EDD;}
	.st2{fill:#FFFFFF;}
</style>
<g>
	<g>
		<path d="M437.1,279.1V207h65v72.1h-17.8V222h-29.4v57.1H437.1z"/>
		<path d="M594,306.3V207h16.6v10.6c1.8-3.3,4.7-6.1,8.6-8.6c3.9-2.4,8.8-3.7,14.8-3.7c9.6,0,17.1,3,22.5,8.9
			c5.4,5.9,8.1,14.8,8.1,26.7v2.7c0,8.2-1.2,15.1-3.7,20.6c-2.5,5.5-6,9.6-10.5,12.3c-4.5,2.7-10,4.1-16.3,4.1
			c-4.9,0-9.2-1.1-13-3.2c-3.8-2.1-6.8-4.9-9.2-8.4v37.1H594z M629.8,265.5c4.7,0,8.7-1.8,11.8-5.4c3.2-3.6,4.8-9,4.8-16.4V241
			c0-6.8-1.5-11.9-4.6-15.3c-3-3.4-7.1-5.1-12-5.1c-3.4,0-6.5,0.7-9.2,2c-2.7,1.3-4.8,3.3-6.4,5.8c-1.5,2.6-2.3,5.9-2.3,9.9v8.2
			c0,4.3,0.7,7.8,2.2,10.7c1.5,2.9,3.6,5,6.3,6.3C623.1,264.8,626.2,265.5,629.8,265.5z"/>
		<path d="M781.8,280.7c-6.6,0-12.6-1.4-17.9-4.1c-5.3-2.8-9.6-6.9-12.7-12.4c-3.1-5.5-4.7-12.3-4.7-20.5V241
			c0-7.8,1.6-14.3,4.9-19.6c3.3-5.3,7.6-9.2,12.9-12c5.3-2.7,11.2-4.1,17.5-4.1c6.8,0,12.6,1.1,17.3,3.4c4.7,2.3,8.4,5.4,10.9,9.4
			c2.6,4,4.1,8.4,4.4,13.2h-18.2c-0.7-3.3-2.2-5.9-4.4-7.8c-2.2-1.9-5.6-2.9-10-2.9c-3.1,0-5.9,0.7-8.5,2.2
			c-2.6,1.5-4.7,3.7-6.3,6.7c-1.6,3-2.4,6.8-2.4,11.6v2.7c0,5.1,0.7,9.2,2.2,12.4c1.5,3.2,3.5,5.6,6.1,7.1c2.6,1.5,5.5,2.2,8.8,2.2
			c3.5,0,6.6-0.9,9.2-2.8c2.6-1.9,4.3-4.5,5.2-8h18.2c-0.5,5.2-2.3,9.7-5.2,13.7c-2.9,4-6.7,7-11.5,9.1
			C793,279.7,787.7,280.7,781.8,280.7z"/>
		<path d="M465.5,401.5c-6,0-11.3-1-16-3.1c-4.7-2.1-8.5-5.1-11.4-9.1c-2.9-4-4.6-8.6-5.2-13.7h18.2c0.9,3.4,2.7,6.1,5.2,8
			c2.6,1.9,5.6,2.8,9.2,2.8c4.9,0,8.7-1.3,11.6-3.9c2.8-2.6,4.5-6.4,5.3-12.2h-25.2v-12.5l25.2,0c-0.7-5.2-2.6-9.9-5.5-12.4
			c-2.9-2.5-6.7-3.7-11.3-3.7c-4.4,0-7.8,1-10,2.9c-2.2,2-3.7,4.6-4.4,7.8h-18.2c0.4-4.8,1.8-9.2,4.4-13.2c2.6-4,6.3-7.1,11-9.4
			c4.8-2.3,10.5-3.4,17.2-3.4c6.8,0,12.9,1.4,18.2,4.1c5.3,2.7,9.5,6.7,12.6,12c3,5.3,4.6,11.8,4.6,19.6v2.7c0,8.2-1.5,15-4.4,20.5
			c-2.9,5.5-7,9.6-12.3,12.4C478.9,400.2,472.7,401.5,465.5,401.5z"/>
		<path d="M512.5,401.5c-0.7,0-1.6,0-2.7-0.1c-1.1,0-2-0.2-2.7-0.3V385c0.3,0.1,1,0.1,2,0.1c2.4,0,4.3-1,5.8-2.9
			c1.5-1.9,2.6-5.3,3.3-10.1c0.7-4.8,1.1-11.4,1.1-19.7v-24.5h57.1v72.1h-17.9v-57.1h-22.6V355c0,9.3-0.5,17-1.4,23.1
			c-1,6.1-2.4,10.8-4.4,14.2c-2,3.4-4.4,5.8-7.3,7.1C519.9,400.9,516.5,401.5,512.5,401.5z"/>
		<path d="M624.3,401.5c-6.5,0-12.5-1.3-18-4c-5.5-2.7-9.9-6.8-13.1-12.2c-3.3-5.5-4.9-12.4-4.9-20.7v-2.7c0-8,1.6-14.6,4.7-19.9
			c3.1-5.3,7.3-9.2,12.6-11.8c5.3-2.6,11.1-3.9,17.4-3.9c11.3,0,19.9,3,25.8,9c5.9,6,8.8,14.6,8.8,26v7.6h-51
			c0.2,4.3,1.1,7.7,2.8,10.4c1.7,2.7,3.8,4.6,6.5,5.8c2.6,1.2,5.4,1.8,8.4,1.8c4.6,0,8.1-0.7,10.5-2c2.4-1.4,4-3.4,5-6h16.5
			c-1.5,7.5-5,13.2-10.7,17C639.8,399.6,632.7,401.5,624.3,401.5z M623.6,340.9c-2.8,0-5.5,0.5-8.2,1.4c-2.6,0.9-4.7,2.5-6.3,4.8
			c-1.5,2.3-2.4,5.4-2.6,9.2h33.6c-0.1-4.1-0.9-7.2-2.4-9.5c-1.5-2.2-3.5-3.8-5.9-4.6C629.4,341.3,626.7,340.9,623.6,340.9z"/>
		<path d="M766.5,399.9v-57.1h-23v-15h63.8v15h-22.8v57.1H766.5z"/>
		<path d="M817,427.1v-99.3h16.6v10.6c1.8-3.3,4.7-6.1,8.6-8.6c3.9-2.4,8.8-3.7,14.8-3.7c9.6,0,17.1,3,22.5,8.9
			c5.4,5.9,8.1,14.8,8.1,26.7v2.7c0,8.2-1.2,15.1-3.7,20.6c-2.5,5.5-6,9.6-10.5,12.3c-4.5,2.7-10,4.1-16.3,4.1
			c-4.9,0-9.2-1.1-13-3.2c-3.8-2.1-6.8-4.9-9.2-8.4v37.1H817z M852.7,386.3c4.7,0,8.7-1.8,11.8-5.4c3.2-3.6,4.8-9,4.8-16.4v-2.7
			c0-6.8-1.5-11.9-4.6-15.3c-3-3.4-7-5.1-12-5.1c-3.4,0-6.5,0.7-9.2,2c-2.7,1.3-4.8,3.3-6.4,5.8c-1.5,2.6-2.3,5.9-2.3,9.9v8.2
			c0,4.3,0.7,7.8,2.2,10.7s3.6,5,6.3,6.3C846.1,385.6,849.2,386.3,852.7,386.3z"/>
		<path d="M932.6,401.5c-6.5,0-12.5-1.3-18-4c-5.5-2.7-9.9-6.8-13.1-12.2c-3.3-5.5-4.9-12.4-4.9-20.7v-2.7c0-7.9,1.6-14.5,4.9-19.7
			c3.3-5.3,7.6-9.2,13.1-11.9c5.5-2.7,11.5-4,18-4c6.5,0,12.5,1.3,18,4c5.5,2.7,9.9,6.6,13.1,11.9c3.3,5.3,4.9,11.8,4.9,19.7v2.7
			c0,8.2-1.6,15-4.9,20.5c-3.3,5.5-7.6,9.6-13.1,12.4C945.1,400.2,939.1,401.5,932.6,401.5z M932.6,386.3c3.4,0,6.5-0.8,9.2-2.4
			c2.7-1.6,4.8-4,6.3-7.3c1.5-3.3,2.3-7.3,2.3-12.1v-2.7c0-4.4-0.8-8.2-2.3-11.1c-1.5-3-3.7-5.3-6.3-6.9c-2.7-1.6-5.7-2.4-9.2-2.4
			c-3.4,0-6.5,0.8-9.2,2.4c-2.7,1.6-4.8,3.9-6.3,6.9c-1.5,3-2.3,6.7-2.3,11.1v2.7c0,4.9,0.8,9,2.3,12.2c1.5,3.2,3.6,5.6,6.3,7.2
			C926.1,385.5,929.1,386.3,932.6,386.3z"/>
		<g>
			<g>
				<path d="M335.5,204.3l25.7-132l-17.4,16.9c-25.7,25.1-54.2,63.1-80.6,105.8c-50,10.5-87.7,55-87.7,108.1
					c0,60.8,49.6,110.5,110.4,110.5c60.8,0,110.5-49.6,110.5-110.5C396.5,259.9,371.6,222.5,335.5,204.3 M349.1,94.6L328.4,201
					l-29,148.4l-94.1-23.4c1.1-2.7,2.1-5.5,3.3-8.2c0.4-0.8,0.7-1.6,1-2.4c0.8-2,1.6-3.9,2.5-5.9c0.4-0.9,0.7-1.7,1.1-2.6
					c0.9-1.9,1.7-3.8,2.5-5.7c0.4-0.9,0.8-1.7,1.1-2.5c0.9-2,1.7-3.9,2.6-5.9c0.4-0.7,0.7-1.5,1-2.2c1-2.1,1.9-4.1,2.9-6.2
					c0.3-0.7,0.6-1.3,0.9-2c1-2.1,2.1-4.3,3.1-6.4c0.3-0.6,0.6-1.2,0.9-1.7c1.1-2.3,2.2-4.5,3.3-6.8c0.2-0.5,0.5-0.9,0.7-1.4
					c1.2-2.3,2.4-4.7,3.6-7c0.2-0.4,0.4-0.8,0.6-1.1c1.2-2.5,2.5-4.9,3.8-7.3c0.1-0.3,0.3-0.5,0.4-0.8c1.3-2.5,2.7-5.1,4-7.6
					c0.1-0.2,0.2-0.4,0.3-0.6c1.4-2.6,2.8-5.2,4.3-7.8c0.1-0.1,0.1-0.2,0.2-0.4c1.5-2.6,3-5.3,4.5-8c0,0,0-0.1,0.1-0.1
					c1.5-2.7,3.1-5.4,4.6-8.1l0,0c4.7-8.1,9.6-16.1,14.5-23.9C298.2,153.4,325,118.2,349.1,94.6 M307.8,371.7l-110.6-19.3l97.9,2.6
					l31.3,0.8L307.8,371.7z"/>
			</g>
		</g>
		<polygon points="737.5,327.9 718.1,327.9 700.6,356.6 687.5,356.6 687.5,327.9 669.7,327.9 669.7,399.9 687.5,399.9 687.5,371.1 
			700.6,371.1 718.1,399.9 737.5,399.9 716.5,363.9 		"/>
		<path d="M575.5,216.9c-2.5-4-6.1-7-10.7-8.8c-4.6-1.8-9.9-2.7-16.1-2.7c-6.3,0-11.8,1-16.2,2.9c-4.5,2-7.9,4.6-10.3,7.9
			c-2.4,3.3-3.7,7-4,11.2h17.9c0.3-2.1,1.3-3.8,3.1-5.2c1.8-1.4,4.8-2.1,8.8-2.1c4.6,0,8,1,10.1,2.9c2.1,1.9,3.2,5.2,3.2,9.9v3.4
			h-21.5c-8.6,0-15.1,1.8-19.4,5.4c-4.3,3.6-6.5,9.1-6.5,16.3c0,4.4,1,8.2,2.9,11.7c1.9,3.4,4.7,6.1,8.3,8.1c3.6,1.9,8,2.9,13.2,2.9
			c6.3,0,11.4-1.1,15.5-3.3c4.1-2.2,7.1-4.7,9-7.6v9.2h16.5l0,0v-46C579.4,226.4,578.1,220.9,575.5,216.9z M561.4,251.9
			c0,3.4-0.8,6.3-2.5,8.5c-1.7,2.2-3.9,3.9-6.5,4.9c-2.7,1-5.5,1.6-8.4,1.6c-3.8,0-6.7-0.9-8.7-2.6c-2-1.7-3-4-3-6.9
			c0-2.7,1-4.9,2.9-6.5c1.9-1.6,4.6-2.4,8.1-2.4h18.1V251.9z"/>
		<path d="M724.7,207l-13.2,55h-8.4c-1.3,0-2.5-0.9-2.8-2.2L687.7,207h-18.3l15,60.5c1.7,6.8,7.8,11.6,14.8,11.6h8.1l-1,4.3
			c-1.1,4.4-5,7.5-9.5,7.5H687l-3.7,15.4H699c11.5,0,21.5-7.9,24.3-19L743,207H724.7z"/>
	</g>
</g>
</svg>
