<?xml version="1.0" encoding="utf-8"?>
<!-- Generator: Adobe Illustrator 27.3.1, SVG Export Plug-In . SVG Version: 6.00 Build 0)  -->
<svg version="1.1" id="Слой_1" xmlns="http://www.w3.org/2000/svg" xmlns:xlink="http://www.w3.org/1999/xlink" x="0px" y="0px"
	 viewBox="0 0 1144.5 562.8" style="enable-background:new 0 0 1144.5 562.8;" xml:space="preserve">
<style type="text/css">
	.st0{fill:#232323;}
	.st1{fill:#2C5EDD;}
	.st2{fill:#FFFFFF;}
</style>
<rect x="-11.1" y="-6.9" class="st0" width="1162.6" height="579.9"/>
<g>
	<circle class="st1" cx="285.8" cy="302.1" r="111.1"/>
	<g>
		<path class="st2" d="M437.6,278.8v-72.1h65v72.1h-17.8v-57.1h-29.4v57.1H437.6z"/>
		<path class="st2" d="M594.5,306v-99.3h16.6v10.6c1.8-3.3,4.7-6.1,8.6-8.6c3.9-2.4,8.8-3.7,14.8-3.7c9.6,0,17.1,3,22.5,8.9
			c5.4,5.9,8.1,14.8,8.1,26.7v2.7c0,8.2-1.2,15.1-3.7,20.6c-2.5,5.5-6,9.6-10.5,12.3c-4.5,2.7-10,4.1-16.3,4.1
			c-4.9,0-9.2-1.1-13-3.2c-3.8-2.1-6.8-4.9-9.2-8.4V306H594.5z M630.2,265.2c4.7,0,8.7-1.8,11.8-5.4c3.2-3.6,4.8-9,4.8-16.4v-2.7
			c0-6.8-1.5-11.9-4.6-15.3c-3-3.4-7.1-5.1-12-5.1c-3.4,0-6.5,0.7-9.2,2c-2.7,1.3-4.8,3.3-6.4,5.8c-1.5,2.6-2.3,5.9-2.3,9.9v8.2
			c0,4.3,0.7,7.8,2.2,10.7c1.5,2.9,3.6,5,6.3,6.3S626.7,265.2,630.2,265.2z"/>
		<path class="st2" d="M782.3,280.4c-6.6,0-12.6-1.4-17.9-4.1c-5.3-2.8-9.6-6.9-12.7-12.4c-3.1-5.5-4.7-12.3-4.7-20.5v-2.7
			c0-7.8,1.6-14.3,4.9-19.6c3.3-5.3,7.6-9.2,12.9-12c5.3-2.7,11.2-4.1,17.5-4.1c6.8,0,12.6,1.1,17.3,3.4c4.7,2.3,8.4,5.4,10.9,9.4
			c2.6,4,4.1,8.4,4.4,13.2h-18.2c-0.7-3.3-2.2-5.9-4.4-7.8c-2.2-1.9-5.6-2.9-10-2.9c-3.1,0-5.9,0.7-8.5,2.2
			c-2.6,1.5-4.7,3.7-6.3,6.7c-1.6,3-2.4,6.8-2.4,11.6v2.7c0,5.1,0.7,9.2,2.2,12.4c1.5,3.2,3.5,5.6,6.1,7.1c2.6,1.5,5.5,2.2,8.8,2.2
			c3.5,0,6.6-0.9,9.2-2.8c2.6-1.9,4.3-4.5,5.2-8h18.2c-0.5,5.2-2.3,9.7-5.2,13.7c-2.9,4-6.7,7-11.5,9.1
			C793.5,279.4,788.2,280.4,782.3,280.4z"/>
		<path class="st2" d="M466,401.2c-6,0-11.3-1-16-3.1c-4.7-2.1-8.5-5.1-11.4-9.1c-2.9-4-4.6-8.6-5.2-13.7h18.2
			c0.9,3.4,2.7,6.1,5.2,8c2.6,1.9,5.6,2.8,9.2,2.8c4.9,0,8.7-1.3,11.6-3.9c2.8-2.6,4.5-6.4,5.3-12.2h-25.2v-12.5l25.2,0
			c-0.7-5.2-2.6-9.9-5.5-12.4c-2.9-2.5-6.7-3.7-11.3-3.7c-4.4,0-7.8,1-10,2.9c-2.2,2-3.7,4.6-4.4,7.8h-18.2
			c0.4-4.8,1.8-9.2,4.4-13.2c2.6-4,6.3-7.1,11-9.4c4.8-2.3,10.5-3.4,17.2-3.4c6.8,0,12.9,1.4,18.2,4.1c5.3,2.7,9.5,6.7,12.6,12
			c3,5.3,4.6,11.8,4.6,19.6v2.7c0,8.2-1.5,15-4.4,20.5c-2.9,5.5-7,9.6-12.3,12.4C479.4,399.8,473.1,401.2,466,401.2z"/>
		<path class="st2" d="M513,401.2c-0.7,0-1.6,0-2.7-0.1c-1.1,0-2-0.2-2.7-0.3v-16.2c0.3,0.1,1,0.1,2,0.1c2.4,0,4.3-1,5.8-2.9
			c1.5-1.9,2.6-5.3,3.3-10.1c0.7-4.8,1.1-11.4,1.1-19.7v-24.5h57.1v72.1h-17.9v-57.1h-22.6v12.2c0,9.3-0.5,17-1.4,23.1
			c-1,6.1-2.4,10.8-4.4,14.2c-2,3.4-4.4,5.8-7.3,7.1C520.4,400.5,517,401.2,513,401.2z"/>
		<path class="st2" d="M624.8,401.2c-6.5,0-12.5-1.3-18-4c-5.5-2.7-9.9-6.8-13.1-12.2c-3.3-5.5-4.9-12.4-4.9-20.7v-2.7
			c0-8,1.6-14.6,4.7-19.9c3.1-5.3,7.3-9.2,12.6-11.8c5.3-2.6,11.1-3.9,17.4-3.9c11.3,0,19.9,3,25.8,9c5.9,6,8.8,14.6,8.8,26v7.6h-51
			c0.2,4.3,1.1,7.7,2.8,10.4c1.7,2.7,3.8,4.6,6.5,5.8c2.6,1.2,5.4,1.8,8.4,1.8c4.6,0,8.1-0.7,10.5-2c2.4-1.4,4-3.4,5-6h16.5
			c-1.5,7.5-5,13.2-10.7,17C640.2,399.3,633.2,401.2,624.8,401.2z M624.1,340.6c-2.8,0-5.5,0.5-8.2,1.4c-2.6,0.9-4.7,2.5-6.3,4.8
			c-1.5,2.3-2.4,5.4-2.6,9.2h33.6c-0.1-4.1-0.9-7.2-2.4-9.5c-1.5-2.2-3.5-3.8-5.9-4.6C629.9,341,627.2,340.6,624.1,340.6z"/>
		<path class="st2" d="M767,399.6v-57.1h-23v-15h63.8v15H785v57.1H767z"/>
		<path class="st2" d="M817.5,426.8v-99.3h16.6v10.6c1.8-3.3,4.7-6.1,8.6-8.6c3.9-2.4,8.8-3.7,14.8-3.7c9.6,0,17.1,3,22.5,8.9
			c5.4,5.9,8.1,14.8,8.1,26.7v2.7c0,8.2-1.2,15.1-3.7,20.6c-2.5,5.5-6,9.6-10.5,12.3c-4.5,2.7-10,4.1-16.3,4.1
			c-4.9,0-9.2-1.1-13-3.2c-3.8-2.1-6.8-4.9-9.2-8.4v37.1H817.5z M853.2,386c4.7,0,8.7-1.8,11.8-5.4c3.2-3.6,4.8-9,4.8-16.4v-2.7
			c0-6.8-1.5-11.9-4.6-15.3c-3-3.4-7-5.1-12-5.1c-3.4,0-6.5,0.7-9.2,2c-2.7,1.3-4.8,3.3-6.4,5.8c-1.5,2.6-2.3,5.9-2.3,9.9v8.2
			c0,4.3,0.7,7.8,2.2,10.7c1.5,2.9,3.6,5,6.3,6.3S849.7,386,853.2,386z"/>
		<path class="st2" d="M933.1,401.2c-6.5,0-12.5-1.3-18-4c-5.5-2.7-9.9-6.8-13.1-12.2c-3.3-5.5-4.9-12.4-4.9-20.7v-2.7
			c0-7.9,1.6-14.5,4.9-19.7c3.3-5.3,7.6-9.2,13.1-11.9c5.5-2.7,11.5-4,18-4s12.5,1.3,18,4c5.5,2.7,9.9,6.6,13.1,11.9
			c3.3,5.3,4.9,11.8,4.9,19.7v2.7c0,8.2-1.6,15-4.9,20.5c-3.3,5.5-7.6,9.6-13.1,12.4C945.6,399.8,939.6,401.2,933.1,401.2z
			 M933.1,386c3.4,0,6.5-0.8,9.2-2.4c2.7-1.6,4.8-4,6.3-7.3c1.5-3.3,2.3-7.3,2.3-12.1v-2.7c0-4.4-0.8-8.2-2.3-11.1
			c-1.5-3-3.7-5.3-6.3-6.9c-2.7-1.6-5.7-2.4-9.2-2.4c-3.4,0-6.5,0.8-9.2,2.4c-2.7,1.6-4.8,3.9-6.3,6.9c-1.5,3-2.3,6.7-2.3,11.1v2.7
			c0,4.9,0.8,9,2.3,12.2c1.5,3.2,3.6,5.6,6.3,7.2C926.5,385.2,929.6,386,933.1,386z"/>
		<polygon class="st2" points="738,327.5 718.5,327.5 701.1,356.3 688,356.3 688,327.5 670.2,327.5 670.2,399.6 688,399.6 
			688,370.8 701.1,370.8 718.5,399.6 738,399.6 717,363.6 		"/>
		<path class="st2" d="M576,216.6c-2.5-4-6.1-7-10.7-8.8c-4.6-1.8-9.9-2.7-16.1-2.7c-6.3,0-11.8,1-16.2,2.9c-4.5,2-7.9,4.6-10.3,7.9
			c-2.4,3.3-3.7,7-4,11.2h17.9c0.3-2.1,1.3-3.8,3.1-5.2c1.8-1.4,4.8-2.1,8.8-2.1c4.6,0,8,1,10.1,2.9c2.1,1.9,3.2,5.2,3.2,9.9v3.4
			h-21.5c-8.6,0-15.1,1.8-19.4,5.4c-4.3,3.6-6.5,9.1-6.5,16.3c0,4.4,1,8.2,2.9,11.7c1.9,3.4,4.7,6.1,8.3,8.1c3.6,1.9,8,2.9,13.2,2.9
			c6.3,0,11.4-1.1,15.5-3.3c4.1-2.2,7.1-4.7,9-7.6v9.2h16.5l0,0v-46C579.8,226,578.6,220.6,576,216.6z M561.9,251.6
			c0,3.4-0.8,6.3-2.5,8.5c-1.7,2.2-3.9,3.9-6.5,4.9c-2.7,1-5.5,1.6-8.4,1.6c-3.8,0-6.7-0.9-8.7-2.6c-2-1.7-3-4-3-6.9
			c0-2.7,1-4.9,2.9-6.5c1.9-1.6,4.6-2.4,8.1-2.4h18.1V251.6z"/>
		<path class="st2" d="M725.2,206.7l-13.2,55h-8.4c-1.3,0-2.5-0.9-2.8-2.2l-12.5-52.8h-18.3l15,60.5c1.7,6.8,7.8,11.6,14.8,11.6h8.1
			l-1,4.3c-1.1,4.4-5,7.5-9.5,7.5h-9.8l-3.7,15.4h15.7c11.5,0,21.5-7.9,24.3-19l19.7-80.2H725.2z"/>
	</g>
	<path class="st2" d="M349.6,94.2l-20.7,106.4L300,349l-94.1-23.4c1.1-2.7,2.1-5.5,3.3-8.2c0.4-0.8,0.7-1.6,1-2.4
		c0.8-2,1.6-3.9,2.5-5.9c0.4-0.9,0.7-1.7,1.1-2.6c0.9-1.9,1.7-3.8,2.5-5.7c0.4-0.9,0.8-1.7,1.1-2.5c0.9-2,1.7-3.9,2.6-5.9
		c0.4-0.7,0.7-1.5,1-2.2c1-2.1,1.9-4.1,2.9-6.2c0.3-0.7,0.6-1.3,0.9-2c1-2.1,2.1-4.3,3.1-6.4c0.3-0.6,0.6-1.2,0.9-1.7
		c1.1-2.3,2.2-4.5,3.3-6.8c0.2-0.5,0.5-0.9,0.7-1.4c1.2-2.3,2.4-4.7,3.6-7c0.2-0.4,0.4-0.8,0.6-1.1c1.2-2.5,2.5-4.9,3.8-7.3
		c0.1-0.3,0.3-0.5,0.4-0.8c1.3-2.5,2.7-5.1,4-7.6c0.1-0.2,0.2-0.4,0.3-0.6c1.4-2.6,2.8-5.2,4.3-7.8c0.1-0.1,0.1-0.2,0.2-0.4
		c1.5-2.6,3-5.3,4.5-8c0,0,0-0.1,0.1-0.1c1.5-2.7,3.1-5.4,4.6-8.1l0,0c4.7-8.1,9.6-16.1,14.5-23.9
		C298.7,153.1,325.5,117.9,349.6,94.2"/>
	<polygon class="st2" points="308.3,371.3 197.7,352 295.7,354.6 326.9,355.4 	"/>
</g>
</svg>
