<?xml version="1.0" encoding="utf-8"?>
<!-- Generator: Adobe Illustrator 27.3.1, SVG Export Plug-In . SVG Version: 6.00 Build 0)  -->
<svg version="1.1" id="Слой_1" xmlns="http://www.w3.org/2000/svg" xmlns:xlink="http://www.w3.org/1999/xlink" x="0px" y="0px"
	 viewBox="0 0 177.4 177.4" style="enable-background:new 0 0 177.4 177.4;" xml:space="preserve">
<style type="text/css">
	.st0{fill:#232323;}
</style>
<path class="st0" d="M146.7,85.1c-1.6-1-3.6-1.1-5.4-0.2l-17.2,8.6l-3.9-65.1c-0.2-3.3-2.9-5.8-6.2-5.8h-12c-3.3,0-6,2.6-6.2,5.8
	l-2.8,47.4l5.2-2.6l2.6-44.5c0-0.6,0.6-1.1,1.2-1.1h12c0.6,0,1.1,0.5,1.2,1.1l4,67.2l-9.4,4.7V89.7c0-1.9-1-3.7-2.6-4.7
	c-1.6-1-3.6-1.1-5.4-0.2L97.6,87l0,0l-5.2,2.6l0,0l-9.5,4.8l-3.9-66c-0.2-3.3-2.9-5.8-6.2-5.8h-12c-3.3,0-6,2.6-6.2,5.8l-2.9,48.4
	l5.2-2.6l2.7-45.5c0-0.6,0.6-1.1,1.2-1.1h12c0.6,0,1.1,0.5,1.2,1.1l4,68.1l-7.5,3.8V89.7c0-1.9-1-3.7-2.6-4.7
	c-1.6-1-3.6-1.1-5.4-0.2L56.1,88l0,0L51,90.6l0,0l-21.9,10.9c-1.9,0.9-3,2.8-3,4.9v40.1h123.3V89.7
	C149.4,87.8,148.4,86.1,146.7,85.1z M144.4,141.5H31.1v-35.1c0-0.2,0.1-0.4,0.3-0.5l33.4-16.7c0.2-0.1,0.4,0,0.5,0
	c0.1,0.1,0.2,0.2,0.2,0.4v18.9l38.7-19.3c0.2-0.1,0.4,0,0.5,0c0.1,0.1,0.2,0.2,0.2,0.4v18.9l38.7-19.3c0.2-0.1,0.4,0,0.5,0
	c0.1,0.1,0.2,0.2,0.2,0.4V141.5z"/>
</svg>
