<?xml version="1.0" encoding="utf-8"?>
<!-- Generator: Adobe Illustrator 27.3.1, SVG Export Plug-In . SVG Version: 6.00 Build 0)  -->
<svg version="1.1" id="Слой_1" xmlns="http://www.w3.org/2000/svg" xmlns:xlink="http://www.w3.org/1999/xlink" x="0px" y="0px"
	 viewBox="0 0 177.4 177.4" style="enable-background:new 0 0 177.4 177.4;" xml:space="preserve">
<style type="text/css">
	.st0{fill:#FFFFFF;}
</style>
<g>
	<path class="st0" d="M146.5,80.8c-0.4-2.8-2.8-4.8-5.6-4.8h-2.6c-1.2-4.2-2.9-8.1-5.1-11.8l1.7-1.7c2-2,2.2-5.2,0.5-7.5
		c-3.8-4.9-8.3-9.2-13.4-12.6c-2.3-1.5-5.3-1.2-7.2,0.7l-2,2c-3.6-1.8-7.3-3.2-11.2-4.2v-2.4c0-2.9-2.1-5.3-5-5.6V45l2,0.4
		c4.7,0.9,9.2,2.6,13.4,5l1.7,0.9l4.7-4.7c0.2-0.2,0.6-0.3,0.9-0.1c4.7,3.2,8.8,7.1,12.2,11.5c0.2,0.3,0.2,0.6-0.1,0.9l-4.6,4.6
		l1.1,1.7c2.8,4.3,4.8,9,6,13.9l0.5,1.9h6.5c0.3,0,0.6,0.2,0.7,0.6c0.5,2.8,0.7,5.6,0.7,8.4c0,2.8-0.2,5.6-0.7,8.4
		c-0.1,0.3-0.3,0.6-0.7,0.6h-6.5l-0.5,1.9c-1.2,5-3.2,9.7-6,14l-1.1,1.7l4.6,4.6c0.2,0.2,0.3,0.6,0.1,0.9
		c-3.4,4.5-7.6,8.4-12.2,11.6c-0.3,0.2-0.6,0.2-0.9-0.1l-4.7-4.7l-1.7,0.9c-4.2,2.4-8.7,4-13.5,5l-2,0.4v12.1c2.8-0.4,5-2.8,5-5.6
		v-2.4c3.9-0.9,7.7-2.3,11.3-4.2l2,2c1.9,1.9,5,2.2,7.2,0.7c5.1-3.5,9.6-7.7,13.4-12.6c1.7-2.2,1.5-5.5-0.5-7.5l-1.7-1.7
		c2.2-3.7,3.9-7.7,5.1-11.9h2.6c2.8,0,5.2-2,5.6-4.8c0.5-3,0.7-6.1,0.7-9.2C147.3,87,147,83.9,146.5,80.8z"/>
	<path class="st0" d="M108.9,88.4c0-7.6-5.3-13.9-12.3-15.6v5.2c4.3,1.5,7.3,5.6,7.3,10.4c0,4.8-3.1,8.9-7.3,10.4v5.2
		C103.7,102.3,108.9,95.9,108.9,88.4z"/>
	<path class="st0" d="M86.9,147v-5c-5.7-0.2-11.7-9.6-15.1-24.9c4.7-0.4,9.5-0.5,14.5-0.4l0.1-5c-5.4-0.1-10.6,0-15.6,0.4
		c-1-5.9-1.7-12.5-1.8-19.7h16.3v-5H69c0.1-7.5,0.8-14.3,1.9-20.4c4.4,0.5,9.2,0.9,14.2,1.1l0.2-5c-4.7-0.2-9.1-0.5-13.3-1
		c3.5-14.9,9.4-24.1,15-24.2v-5v0c-31.5,0-57.1,25.6-57.1,57.1S55.5,147,86.9,147L86.9,147z M76.4,39c-4,5-7.3,12.8-9.5,22.5
		c-8.9-1.3-16.1-3.1-20.4-4.2C53.9,48.1,64.4,41.5,76.4,39z M43.3,61.6c4,1.2,12.2,3.3,22.6,4.8c-1.1,6.4-1.8,13.5-1.9,21.1H34.9
		C35.4,77.9,38.4,69.1,43.3,61.6z M34.9,92.5H64c0.1,7.2,0.7,14.1,1.8,20.3c-8.1,1-15.6,2.9-22.6,5.4
		C38.4,110.7,35.4,101.9,34.9,92.5z M46.2,122.4c6.3-2.2,13.1-3.8,20.5-4.7c2.2,10.1,5.5,18.2,9.7,23.3
		C64.3,138.5,53.7,131.7,46.2,122.4z"/>
</g>
</svg>
