<?xml version="1.0" encoding="utf-8"?>
<!-- Generator: Adobe Illustrator 27.3.1, SVG Export Plug-In . SVG Version: 6.00 Build 0)  -->
<svg version="1.1" id="Слой_1" xmlns="http://www.w3.org/2000/svg" xmlns:xlink="http://www.w3.org/1999/xlink" x="0px" y="0px"
	 viewBox="0 0 177.4 177.4" style="enable-background:new 0 0 177.4 177.4;" xml:space="preserve">
<style type="text/css">
	.st0{fill:#FFFFFF;}
</style>
<g>
	<rect x="44.9" y="63.5" class="st0" width="27.4" height="5"/>
	<rect x="44.9" y="77.7" class="st0" width="27.4" height="5"/>
	<rect x="44.9" y="93.6" class="st0" width="27.4" height="5"/>
	<path class="st0" d="M26.5,51.1v96.8h64.1v-106H35.7C30.6,41.9,26.5,46,26.5,51.1z M85.6,142.9H31.5V51.1c0-2.3,1.9-4.2,4.2-4.2
		h49.9V142.9z"/>
	<path class="st0" d="M140.5,57.5H99.7v5h40.8c2.7,0,4.8,2.2,4.8,4.8v80.5h5V67.3C150.4,61.9,146,57.5,140.5,57.5z"/>
	<path class="st0" d="M115.8,35.7v14.2h5V35.7c0-4.7-3.9-8.6-8.6-8.6H92.4V15.7h-5v11.4H59.1v5h53C114.2,32.1,115.8,33.7,115.8,35.7
		z"/>
	<rect x="130.6" y="73.9" class="st0" width="5" height="73.9"/>
	<rect x="115.8" y="73.9" class="st0" width="5" height="73.9"/>
</g>
</svg>
