<?xml version="1.0" encoding="utf-8"?>
<!-- Generator: Adobe Illustrator 27.3.1, SVG Export Plug-In . SVG Version: 6.00 Build 0)  -->
<svg version="1.1" id="Слой_1" xmlns="http://www.w3.org/2000/svg" xmlns:xlink="http://www.w3.org/1999/xlink" x="0px" y="0px"
	 viewBox="0 0 177.4 177.4" style="enable-background:new 0 0 177.4 177.4;" xml:space="preserve">
<style type="text/css">
	.st0{fill:#2C5EDD;}
</style>
<path class="st0" d="M81.4,68h17.8c4.7,0,8.5-3.8,8.5-8.5V43.3H72.9v16.1C72.9,64.2,76.7,68,81.4,68z M77.9,48.3h24.8v11.1
	c0,1.9-1.6,3.5-3.5,3.5H81.4c-1.9,0-3.5-1.6-3.5-3.5V48.3z M63.4,102.7h-5V75.9h5V102.7z M134.6,27.6H45.9v116.6h12.5v6.6h5v-6.6
	h54.1v6.6h5v-6.6h12L134.6,27.6z M129.6,139.3H50.9V32.6h78.7V139.3z"/>
</svg>
