<?xml version="1.0" encoding="utf-8"?>
<!-- Generator: Adobe Illustrator 27.3.1, SVG Export Plug-In . SVG Version: 6.00 Build 0)  -->
<svg version="1.1" id="Слой_1" xmlns="http://www.w3.org/2000/svg" xmlns:xlink="http://www.w3.org/1999/xlink" x="0px" y="0px"
	 viewBox="0 0 177.4 177.4" style="enable-background:new 0 0 177.4 177.4;" xml:space="preserve">
<style type="text/css">
	.st0{fill:#2C5EDD;}
</style>
<path class="st0" d="M134.2,100.6v48h-0.7v2.5H46.7v-5h82.5V131H52.2c-1.3,0-2,0.7-2,0.9v9.3h-5v-9.3c0-3.3,3.1-5.9,7-5.9h77.1
	v-15.9h-78c-1.3,0-2,0.7-2,0.9v9.3h-5v-9.3c0-3.3,3.1-5.9,7-5.9h78V89h-78c-1.3,0-2,0.7-2,0.9v9.9h-5v-9.9c0-3.3,3.1-5.9,7-5.9h83
	v10.8c6.2-4,10.4-11,10.4-19c0-12.4-9.7-22.3-22.1-22.6l-2.3-0.1l-0.2-2.3c-0.5-7.3-6.6-12.9-13.9-12.9c-1.8,0-3.5,0.3-5.1,1
	l-1.7,0.7l-1.2-1.4c-4.3-5-10.6-7.9-17.2-7.9c-11.6,0-21.5,9.1-22.5,20.6l-0.2,2.1l-2.1,0.1c-11.8,0.8-21,10.7-21,22.6
	c0,4.8,1.5,9.2,4.1,12.9h-5.8c-2-3.9-3.2-8.2-3.2-12.9c0-13.7,10.2-25.4,23.6-27.3C56,35.2,67.4,25.4,81.1,25.4
	c7.5,0,14.6,3,19.8,8.4c1.7-0.5,3.5-0.8,5.3-0.8c9.1,0,16.9,6.6,18.6,15.4c14.1,1.4,24.8,13.1,24.8,27.5
	C149.6,86.6,143.3,96,134.2,100.6z M90.5,94.5v5h27.4v-5H90.5z M90.5,115.6v5h27.4v-5H90.5z M90.5,136.7v5h27.4v-5H90.5z"/>
</svg>
