<?xml version="1.0" encoding="utf-8"?>
<!-- Generator: Adobe Illustrator 27.3.1, SVG Export Plug-In . SVG Version: 6.00 Build 0)  -->
<svg version="1.1" id="Слой_1" xmlns="http://www.w3.org/2000/svg" xmlns:xlink="http://www.w3.org/1999/xlink" x="0px" y="0px"
	 viewBox="0 0 177.4 177.4" style="enable-background:new 0 0 177.4 177.4;" xml:space="preserve">
<style type="text/css">
	.st0{fill:#2C5EDD;}
</style>
<g>
	<path class="st0" d="M28.3,53.9v76.8c0,5.7,4.6,10.3,10.3,10.3h102.7c5.7,0,10.3-4.6,10.3-10.3V53.9H28.3z M146.6,130.7
		c0,2.9-2.4,5.3-5.3,5.3H38.6c-2.9,0-5.3-2.4-5.3-5.3V76.6h101v-5h-101V58.9h113.3V130.7z"/>
	<polygon class="st0" points="41.7,41.2 57.9,41.2 57.9,48.5 62.9,48.5 62.9,36.2 36.7,36.2 36.7,48.5 41.7,48.5 	"/>
	<polygon class="st0" points="122,41.2 138.3,41.2 138.3,48.5 143.3,48.5 143.3,36.2 117,36.2 117,48.5 122,48.5 	"/>
	<polygon class="st0" points="61.5,88.9 56.5,88.9 56.5,101.2 43.8,101.2 43.8,106.2 56.5,106.2 56.5,119.3 61.5,119.3 61.5,106.2 
		74.2,106.2 74.2,101.2 61.5,101.2 	"/>
	<rect x="103.9" y="101.2" class="st0" width="30.4" height="5"/>
</g>
</svg>
