<?xml version="1.0" encoding="utf-8"?>
<!-- Generator: Adobe Illustrator 27.3.1, SVG Export Plug-In . SVG Version: 6.00 Build 0)  -->
<svg version="1.1" id="Слой_1" xmlns="http://www.w3.org/2000/svg" xmlns:xlink="http://www.w3.org/1999/xlink" x="0px" y="0px"
	 viewBox="0 0 177.4 177.4" style="enable-background:new 0 0 177.4 177.4;" xml:space="preserve">
<style type="text/css">
	.st0{fill:#2C5EDD;}
</style>
<path class="st0" d="M40.5,140.8h21.6v5H40.5c-4.5,0-8.1-3.6-8.1-8.1V40.1c0-4.5,3.6-8.1,8.1-8.1h57.8l-6.7-6.7l3.5-3.5l12.7,12.7
	L95.1,47.3l-3.5-3.5l6.7-6.7H40.5c-1.7,0-3.1,1.4-3.1,3.1v97.5C37.4,139.4,38.8,140.8,40.5,140.8z M138.3,32h-21.6v5h21.6
	c1.7,0,3.1,1.4,3.1,3.1v97.5c0,1.7-1.4,3.1-3.1,3.1H80l6.7-6.7l-3.5-3.5l-12.7,12.7L83.2,156l3.5-3.5l-6.7-6.7h58.3
	c4.5,0,8.1-3.6,8.1-8.1V40.1C146.4,35.7,142.8,32,138.3,32z M71.6,88.6c-0.8,1.5-2,2.7-3.5,3.5s-3.5,1.3-5.9,1.3H56v10.7h-4.7V73.7
	h10.9c2.3,0,4.3,0.4,5.9,1.3c1.6,0.9,2.7,2,3.5,3.5c0.8,1.5,1.2,3.2,1.2,5C72.8,85.5,72.4,87.1,71.6,88.6z M68.1,83.6
	c0-1.1-0.2-2.2-0.6-3.1s-1.1-1.6-2-2.1c-0.9-0.5-2.2-0.8-3.7-0.8H56v11.8h5.8c1.5,0,2.7-0.3,3.6-0.8c0.9-0.5,1.6-1.2,2-2.1
	C67.9,85.7,68.1,84.7,68.1,83.6z M84.9,99.5c-0.6,0.3-1.4,0.5-2.4,0.5h-2.2v4.1h2.4c1.5,0,2.8-0.2,3.8-0.7c1-0.4,1.8-1.1,2.4-1.8
	s1.1-1.7,1.6-2.8L101,73.7h-5.1l-3.4,8.5c-1,2.5-1.9,4.9-2.6,6.9c-0.4,1.3-0.8,2.5-1.2,3.7c-0.2-0.6-0.4-1.2-0.6-1.8
	c-0.4-1.3-0.8-2.7-1.3-4.1c-0.5-1.4-1.1-3-1.9-4.6l-3.8-8.5h-5.2l10.7,23L86.1,98C85.9,98.7,85.4,99.2,84.9,99.5z M104.7,80.6
	c-1.2,2.3-1.8,5.1-1.8,8.4c0,3.2,0.6,6,1.8,8.4c1.2,2.3,2.8,4.1,4.9,5.4c2.1,1.2,4.4,1.9,7,1.9c1.7,0,3.2-0.2,4.6-0.7
	c1.4-0.5,2.7-1.2,3.8-2.1c1.1-0.9,2-2,2.7-3.3c0.7-1.2,1.2-2.6,1.4-4.1h-4.7c-0.2,1-0.5,1.8-1,2.6c-0.5,0.7-1.1,1.4-1.8,1.9
	c-0.7,0.5-1.5,0.9-2.3,1.2c-0.9,0.3-1.8,0.4-2.7,0.4c-1.7,0-3.3-0.4-4.7-1.3s-2.5-2.1-3.3-3.8s-1.2-3.8-1.2-6.2s0.4-4.5,1.2-6.2
	c0.8-1.7,1.9-3,3.3-3.9s2.9-1.3,4.7-1.3c1,0,1.9,0.1,2.7,0.4c0.9,0.3,1.6,0.6,2.3,1.2c0.7,0.5,1.3,1.1,1.8,1.9
	c0.5,0.7,0.8,1.6,1,2.6h4.7c-0.3-1.6-0.8-3-1.5-4.3c-0.7-1.3-1.6-2.3-2.8-3.2s-2.4-1.6-3.8-2c-1.4-0.5-2.9-0.7-4.5-0.7
	c-2.6,0-5,0.6-7,1.9C107.5,76.4,105.9,78.2,104.7,80.6z"/>
</svg>
