<?xml version="1.0" encoding="utf-8"?>
<!-- Generator: Adobe Illustrator 27.3.1, SVG Export Plug-In . SVG Version: 6.00 Build 0)  -->
<svg version="1.1" id="Слой_1" xmlns="http://www.w3.org/2000/svg" xmlns:xlink="http://www.w3.org/1999/xlink" x="0px" y="0px"
	 viewBox="0 0 177.4 177.4" style="enable-background:new 0 0 177.4 177.4;" xml:space="preserve">
<style type="text/css">
	.st0{fill:#232323;}
</style>
<path class="st0" d="M158.4,70.3l-2.4,4.4l-23.2-12.6l-23.2,12.6l-2.4-4.4l23.1-12.5V29.3h5v28.5L158.4,70.3z M135.3,69.3h-5v75.3
	h-18.4v-38.8h-5v38.8H64.5v5h82.1v-5h-11.3V69.3z M52.6,144.6H33.9v-28.9c0-0.8,0.5-1.6,1.2-2l17.5-9.1v13.1h14.1c0.6,0,1,0.5,1,1
	v8.3c0,6.6,5.4,12,12,12c6.1,0,11.1-5,11.1-11.1V99.8l-4.9-9.6c-1.5-2.8-0.5-6.3,2.3-7.9l2-1l9.3,17.2l4.4-2.4l-2-3.6l5.9-3.3
	l-2.4-4.4L99.6,88l-3-5.5l6.3-3.5l-2.4-4.4l-6.3,3.5l-1.9-3.6l-6.4,3.2l-0.1,0.1c-5.1,2.9-7,9.4-4.3,14.6l4.4,8.5v26.9
	c0,3.4-2.7,6.1-6.1,6.1c-3.9,0-7-3.2-7-7v-8.3c0-3.3-2.7-6-6-6h-9.1V96.4l-24.8,12.8c-2.4,1.2-3.9,3.7-3.9,6.4v33.9h28.7l0-24.6h-5
	L52.6,144.6z M38.2,140.1h10.1v-5H38.2V140.1z M48.2,125.1H38.2v5h10.1V125.1z"/>
</svg>
